<?xml version="1.0" encoding="utf-8"?>
<!-- Generator: Adobe Illustrator 24.3.0, SVG Export Plug-In . SVG Version: 6.00 Build 0)  -->
<svg version="1.1" id="Graphics_1_" xmlns="http://www.w3.org/2000/svg" xmlns:xlink="http://www.w3.org/1999/xlink" x="0px"
	 y="0px" viewBox="0 0 328.1 53.4" style="enable-background:new 0 0 328.1 53.4;" xml:space="preserve">
<style type="text/css">
	.st0{fill:#FFFFFF;}
	.st1{fill:#E20917;}
</style>
<g>
	<g>
		
			<image style="overflow:visible;opacity:0.75;" width="1213" height="258" xlink:href="3260A003CFF7E07A.png"  transform="matrix(0.24 0 0 0.24 20.0561 -1.6839)">
		</image>
		<g>
			<path class="st0" d="M299.6,34.4V4.2h-6.8v30.2H299.6z M284.5,48.6V4.2h-6v0.2h-0.1v0.1h-0.1v0.2h-0.1v0.1h-0.1v0.1H278v0.2h-0.1
				v0.1h-0.1v0.1h-0.1v0.2h-0.1v0.1h-0.1v0.1h-0.1V6h-0.1v0.1h-0.1v0.2H277v0.1h-0.1v0.1h-0.1v0.2h-0.1v0.1h-0.1v0.1h-0.1v0.2h-0.1
				v0.1h-0.1v0.2h-0.1v0.1h-0.1v0.1H276v0.2h-0.1V8h-0.1v0.1h-0.1v0.2h-0.1v0.1h-0.1v0.1h-0.1v0.2h-0.1v0.1h-0.1V9H275v0.1h-0.1v0.1
				h-0.1v0.2h-0.1v0.1h-0.1v0.1h-0.1v0.2h-0.1V10h-0.1v0.1h-0.1v0.2h-0.1v0.1H274v0.2h-0.1v0.1h-0.1v0.1h-0.1V11h-0.1v0.1h-0.1v0.1
				h-0.1v0.2h-0.1v0.1h-0.1v0.2H273v0.1h-0.1V12h-0.1v0.2h-0.1v0.1h-0.1v0.1h-0.1v0.2h-0.1v0.1h-0.1v0.1h-0.1V13h-0.1v0.1H272v0.2
				h-0.1v0.1h-0.1v0.1h-0.1v0.2h-0.1v0.1h-0.1V14h-0.1v0.2h-0.1v0.1h-0.1v0.1H271v0.2h-0.1v0.1h-0.1v0.2h-0.1V15h-0.1v0.1h-0.1v0.2
				h-0.1v0.1h-0.1v0.1h-0.1v0.2h-0.1v0.1H270V16h-0.1v0.2h-0.1v0.1h-0.1v0.2h-0.1v0.1h-0.1v0.1h-0.1v0.2h-0.1V17h-0.1v0.1H269v0.2
				h-0.1v0.1h-0.1v0.2h-0.1v0.1h-0.1v0.1h-0.1v0.2h-0.1v0.1h-0.1v0.1h-0.1v0.2h-0.1v0.1H268v0.1h-0.1v0.2h-0.1V19h-0.1v0.2h-0.1v0.1
				h-0.1v0.1h-0.1v0.2h-0.1v0.1h-0.1v0.1H267v0.2h-0.1v0.1h-0.1v0.1h-0.1v0.2h-0.1v0.1h-0.1v0.2h-0.1v0.1h-0.1v0.1h-0.1v0.2h-0.1
				v0.1H266v0.1h-0.1v0.2h-0.1v0.1h-0.1v0.1h-0.1v0.2h-0.1v0.1h-0.1v0.2h-0.1v0.1h-0.1v0.1H265v0.2h-0.1v0.1h-0.1v0.1h-0.1v0.2h-0.1
				v0.1h-0.1v0.2h-0.1v0.1h-0.1v0.1h-0.1V24h-0.1v0.1H264v0.1h-0.1v0.2h-0.1v0.1h-0.1v0.1h-0.1v0.2h-0.1v0.1h-0.1v0.2h-0.1v0.1h-0.1
				v0.1H263v0.2h-0.1v0.1h-0.1v0.1h-0.1V26h-0.1v0.1h-0.1v0.1h-0.1v0.2h-0.1v0.1h-0.1v0.2h-0.1v0.1H262v0.1h-0.1v0.2h-0.1v0.1h-0.1
				v0.1h-0.1v0.2h-0.1v0.1h-0.1v0.2h-0.1V28h-0.1v0.1H261v0.2h-0.1v0.1h-0.1v0.1h-0.1v0.2h-0.1v0.1h-0.1v0.1h-0.1v0.2h-0.1v0.1h-0.1
				v0.2h-0.1v0.1H260v0.1h-0.1v0.2h-0.1V30h-0.1v0.1h-0.1v0.2h-0.1v0.1h-0.1v0.1h-0.1v0.2h-0.1v0.1H259v0.2h-0.1v0.1h-0.1v0.1h-0.1
				v0.2h-0.1v0.1h-0.1v0.1h-0.1v0.2h-0.1V32h-0.1v0.1h-0.1v0.2H258v0.1h-0.1v0.2h-0.1v0.1h-0.1v0.1h-0.1v0.2h-0.1v0.1h-0.1v0.1h-0.1
				v0.2h-0.1v0.1H257v0.2h-0.1v0.1h-0.1V34h-0.1v0.2h-0.1v0.1h-0.1v0.1h-0.1v0.2h-0.1v0.1h-0.1v0.1h-0.1v0.2H256v0.1h-0.1v0.2h-0.1
				v0.1h-0.1v0.1h-0.1v0.2h-0.1v0.1h-0.1V36h-0.1v0.2h-0.1v0.1H255v0.1h-0.1v0.2h-0.1v0.1h-0.1v0.2h-0.1v0.1h-0.1v0.1h-0.1v0.2h-0.1
				v0.1h-0.1v0.1h-0.1v0.2H254v0.1h-0.1V38h-0.1v0.2h-0.1v0.1h-0.1v0.2h-0.1v0.1h-0.1v0.1h-0.1v0.2h-0.1v0.1H253v0.1h-0.1v0.2h-0.1
				v0.1h-0.1v0.2h-0.1v0.1h-0.1v0.1h-0.1v0.2h-0.1v0.1h-0.1v0.1h-0.1v0.2H252v0.1h-0.1v0.1h-0.1v0.2h-0.1v0.1h-0.1v0.2h-0.1v0.1
				h-0.1v-0.1h-0.1v-0.1h-0.1v-0.1H251v-0.2h-0.1v-0.1h-0.1v-0.1h-0.1v-0.2h-0.1v-0.1h-0.1v-0.2h-0.1V40h-0.1v-0.1h-0.1v-0.2h-0.1
				v-0.1H250v-0.1h-0.1v-0.2h-0.1v-0.1h-0.1v-0.1h-0.1v-0.2h-0.1v-0.1h-0.1v-0.2h-0.1v-0.1h-0.1v-0.1H249v-0.2h-0.1V38h-0.1v-0.1
				h-0.1v-0.2h-0.1v-0.1h-0.1v-0.1h-0.1v-0.2h-0.1v-0.1h-0.1v-0.2h-0.1v-0.1H248v-0.1h-0.1v-0.2h-0.1v-0.1h-0.1v-0.1h-0.1v-0.2h-0.1
				V36h-0.1v-0.2h-0.1v-0.1h-0.1v-0.1H247v-0.2h-0.1v-0.1h-0.1v-0.1h-0.1v-0.2h-0.1v-0.1h-0.1v-0.1h-0.1v-0.2h-0.1v-0.1h-0.1v-0.2
				h-0.1v-0.1H246V34h-0.1v-0.2h-0.1v-0.1h-0.1v-0.1h-0.1v-0.2h-0.1v-0.1h-0.1v-0.1h-0.1v-0.2h-0.1v-0.1H245v-0.2h-0.1v-0.1h-0.1
				v-0.1h-0.1v-0.2h-0.1v-0.1h-0.1V32h-0.1v-0.2h-0.1v-0.1h-0.1v-0.1h-0.1v-0.2H244v-0.1h-0.1v-0.2h-0.1v-0.1h-0.1v-0.1h-0.1v-0.2
				h-0.1v-0.1h-0.1v-0.1h-0.1v-0.2h-0.1v-0.1H243v-0.2h-0.1v-0.1h-0.1v-0.1h-0.1v-0.2h-0.1v-0.1h-0.1v-0.1h-0.1v-0.2h-0.1v-0.1h-0.1
				v-0.1h-0.1v-0.2H242v-0.1h-0.1v-0.2h-0.1v-0.1h-0.1v-0.1h-0.1v-0.2h-0.1v-0.1h-0.1v-0.1h-0.1v-0.2h-0.1v-0.1H241v-0.1h-0.1v-0.2
				h-0.1v-0.1h-0.1v-0.2h-0.1v-0.1h-0.1v-0.1h-0.1v-0.2h-0.1v-0.1h-0.1v-0.1h-0.1v-0.2H240v-0.1h-0.1v-0.1h-0.1v-0.2h-0.1v-0.1h-0.1
				v-0.2h-0.1v-0.1h-0.1v-0.1h-0.1v-0.2h-0.1v-0.1H239v-0.1h-0.1v-0.2h-0.1v-0.1h-0.1V24h-0.1v-0.1h-0.1v-0.1h-0.1v-0.2h-0.1v-0.1
				h-0.1v-0.1h-0.1v-0.2H238v-0.1h-0.1v-0.1h-0.1v-0.2h-0.1v-0.1h-0.1v-0.2h-0.1v-0.1h-0.1v-0.1h-0.1V22h-0.1v-0.1H237v-0.1h-0.1
				v-0.2h-0.1v-0.1h-0.1v-0.1h-0.1v-0.2h-0.1v-0.1h-0.1v-0.2h-0.1v-0.1h-0.1v-0.1h-0.1v-0.2H236v-0.1h-0.1v-0.1h-0.1V20h-0.1v-0.1
				h-0.1v-0.2h-0.1v-0.1h-0.1v-0.1h-0.1v-0.2h-0.1v-0.1H235V19h-0.1v-0.2h-0.1v-0.1h-0.1v-0.1h-0.1v-0.2h-0.1v-0.1h-0.1v-0.2h-0.1
				V18h-0.1v-0.1h-0.1v-0.2H234v-0.1h-0.1v-0.1h-0.1v-0.2h-0.1v-0.1h-0.1V17h-0.1v-0.2h-0.1v-0.1h-0.1v-0.2h-0.1v-0.1H233v-0.1h-0.1
				v-0.2h-0.1V16h-0.1v-0.1h-0.1v-0.2h-0.1v-0.1h-0.1v-0.1h-0.1v-0.2h-0.1v-0.1h-0.1v-0.2H232v-0.1h-0.1v-0.1h-0.1v-0.2h-0.1v-0.1
				h-0.1v-0.1h-0.1v-0.2h-0.1V14h-0.1v-0.2h-0.1v-0.1H231v-0.1h-0.1v-0.2h-0.1v-0.1h-0.1v-0.1h-0.1v-0.2h-0.1v-0.1h-0.1v-0.1h-0.1
				v-0.2h-0.1v-0.1h-0.1v-0.2H230v-0.1h-0.1V12h-0.1v-0.2h-0.1v-0.1h-0.1v-0.1h-0.1v-0.2h-0.1v-0.1h-0.1v-0.1h-0.1v-0.2H229v-0.1
				h-0.1v-0.2h-0.1v-0.1h-0.1v-0.1h-0.1v-0.2h-0.1v-0.1h-0.1V10h-0.1V9.8h-0.1V9.7h-0.1V9.5H228V9.4h-0.1V9.3h-0.1V9h-0.1V8.9h-0.1
				V8.8h-0.1V8.6h-0.1V8.5h-0.1V8.4h-0.1V8.2H227V8.1h-0.1V7.9h-0.1V7.8h-0.1V7.7h-0.1V7.5h-0.1V7.4h-0.1V7.3h-0.1V7h-0.1V6.9h-0.1
				V6.8H226V6.6h-0.1V6.5h-0.1V6.3h-0.1V6.2h-0.1V6.1h-0.1V5.9h-0.1V5.8h-0.1V5.7h-0.1V5.5H225V5.4h-0.1V5.3h-0.1V5h-0.1V4.9h-0.1
				V4.7h-0.1V4.6h-0.1V4.5h-0.1V4.3h-0.1V4.2h-5.9v44.4h6.8V16.3h0.1v0.1h0.1v0.2h0.1v0.1h0.1v0.1h0.1V17h0.1v0.1h0.1v0.2h0.1v0.1
				h0.1v0.1h0.1v0.2h0.1v0.1h0.1V18h0.1v0.2h0.1v0.1h0.1v0.1h0.1v0.2h0.1v0.1h0.1v0.2h0.1V19h0.1v0.1h0.1v0.2h0.1v0.1h0.1v0.1h0.1
				v0.2h0.1v0.1h0.1v0.2h0.1v0.1h0.1v0.1h0.1v0.2h0.1v0.1h0.1v0.1h0.1v0.2h0.1v0.1h0.1v0.1h0.1v0.2h0.1v0.1h0.1v0.2h0.1v0.1h0.1v0.1
				h0.1v0.2h0.1v0.1h0.1v0.1h0.1v0.2h0.1v0.1h0.1v0.1h0.1v0.2h0.1v0.1h0.1v0.2h0.1v0.1h0.1v0.1h0.1v0.2h0.1v0.1h0.1v0.1h0.1v0.2h0.1
				v0.1h0.1v0.2h0.1v0.1h0.1v0.1h0.1v0.2h0.1v0.1h0.1v0.1h0.1v0.2h0.1v0.1h0.1v0.1h0.1v0.2h0.1v0.1h0.1V26h0.1v0.1h0.1v0.1h0.1v0.2
				h0.1v0.1h0.1v0.1h0.1v0.2h0.1v0.1h0.1v0.2h0.1v0.1h0.1v0.1h0.1v0.2h0.1v0.1h0.1v0.1h0.1V28h0.1v0.1h0.1v0.1h0.1v0.2h0.1v0.1h0.1
				v0.2h0.1v0.1h0.1v0.1h0.1v0.2h0.1v0.1h0.1v0.1h0.1v0.2h0.1v0.1h0.1v0.2h0.1V30h0.1v0.1h0.1v0.2h0.1v0.1h0.1v0.1h0.1v0.2h0.1v0.1
				h0.1v0.1h0.1v0.2h0.1v0.1h0.1v0.2h0.1v0.1h0.1v0.1h0.1v0.2h0.1V32h0.1v0.1h0.1v0.2h0.1v0.1h0.1v0.1h0.1v0.2h0.1v0.1h0.1v0.2h0.1
				v0.1h0.1v0.1h0.1v0.2h0.1v0.1h0.1v0.1h0.1v0.2h0.1V34h0.1v0.2h0.1v0.1h0.1v0.1h0.1v0.2h0.1v0.1h0.1v0.1h0.1v0.2h0.1v0.1h0.1v0.1
				h0.1v0.2h0.1v0.1h0.1v0.2h0.1v0.1h0.1V36h0.1v0.2h0.1v0.1h0.1v0.1h0.1v0.2h0.1v0.1h0.1v0.2h0.1v0.1h0.1v0.1h0.1v0.2h0.1v0.1h0.1
				v0.1h0.1v0.2h0.1v0.1h0.1V38h0.1v0.2h0.1v0.1h0.1v0.2h0.1v0.1h0.1v0.1h0.1v0.2h0.1v0.1h0.1v0.1h0.1v0.2h0.1v0.1h0.1v0.1h0.1v0.2
				h0.1v0.1h0.1v0.2h0.1v0.1h0.1v0.1h0.1v0.2h0.1v0.1h0.1v0.1h0.1v0.2h0.1v0.1h0.1v0.2h0.1v0.1h0.1v0.1h0.1v0.2h0.1v0.1h0.1v0.1h0.1
				v0.2h0.1v0.1h0.1v0.1h0.1v0.2h0.1v0.1h0.1v0.2h0.1v0.1h0.1v0.1h0.1v0.2h0.1v0.1h0.1v0.1h0.1v0.2h0.1v0.1h0.1V44h0.1v0.1h0.1v0.1
				h0.1v0.2h0.1v0.1h0.1v0.1h0.1v0.2h0.1v0.1h0.1v0.1h0.1v0.2h0.1v0.1h0.1v0.2h0.1v0.1h0.1v0.1h0.1V46h0.1v0.1h0.1v0.1h0.1v0.2h0.1
				v0.1h0.1v0.2h0.1v0.1h0.1v0.1h0.1v0.2h0.1v0.1h0.1v0.1h0.1v0.2h0.1v0.1h0.1v0.1h0.1V48h0.1v0.1h0.1v0.2h0.1v0.1h0.1v0.1h0.1v0.1
				h5.2v-0.2h0.1v-0.1h0.1v-0.1h0.1V48h0.1v-0.1h0.1v-0.1h0.1v-0.2h0.1v-0.1h0.1v-0.1h0.1v-0.2h0.1v-0.1h0.1v-0.2h0.1v-0.1h0.1v-0.1
				h0.1v-0.2h0.1v-0.1h0.1v-0.1h0.1V46h0.1v-0.1h0.1v-0.1h0.1v-0.2h0.1v-0.1h0.1v-0.2h0.1v-0.1h0.1v-0.1h0.1v-0.2h0.1v-0.1h0.1v-0.1
				h0.1v-0.2h0.1v-0.1h0.1v-0.1h0.1V44h0.1v-0.1h0.1v-0.2h0.1v-0.1h0.1v-0.1h0.1v-0.2h0.1v-0.1h0.1v-0.1h0.1v-0.2h0.1v-0.1h0.1v-0.1
				h0.1v-0.2h0.1v-0.1h0.1v-0.2h0.1V42h0.1v-0.1h0.1v-0.2h0.1v-0.1h0.1v-0.1h0.1v-0.2h0.1v-0.1h0.1v-0.1h0.1v-0.2h0.1v-0.1h0.1v-0.2
				h0.1v-0.1h0.1v-0.1h0.1v-0.2h0.1V40h0.1v-0.1h0.1v-0.2h0.1v-0.1h0.1v-0.1h0.1v-0.2h0.1v-0.1h0.1v-0.2h0.1v-0.1h0.1v-0.1h0.1v-0.2
				h0.1v-0.1h0.1v-0.1h0.1v-0.2h0.1V38h0.1v-0.1h0.1v-0.2h0.1v-0.1h0.1v-0.2h0.1v-0.1h0.1v-0.1h0.1v-0.2h0.1v-0.1h0.1v-0.1h0.1v-0.2
				h0.1v-0.1h0.1v-0.1h0.1v-0.2h0.1V36h0.1v-0.2h0.1v-0.1h0.1v-0.1h0.1v-0.2h0.1v-0.1h0.1v-0.1h0.1v-0.2h0.1v-0.1h0.1v-0.1h0.1v-0.2
				h0.1v-0.1h0.1v-0.2h0.1v-0.1h0.1V34h0.1v-0.2h0.1v-0.1h0.1v-0.1h0.1v-0.2h0.1v-0.1h0.1v-0.1h0.1v-0.2h0.1v-0.1h0.1v-0.2h0.1v-0.1
				h0.1v-0.1h0.1v-0.2h0.1v-0.1h0.1V32h0.1v-0.2h0.1v-0.1h0.1v-0.1h0.1v-0.2h0.1v-0.1h0.1v-0.2h0.1v-0.1h0.1v-0.1h0.1v-0.2h0.1v-0.1
				h0.1v-0.1h0.1v-0.2h0.1v-0.1h0.1V30h0.1v-0.2h0.1v-0.1h0.1v-0.2h0.1v-0.1h0.1v-0.1h0.1v-0.2h0.1v-0.1h0.1v-0.1h0.1v-0.2h0.1v-0.1
				h0.1v-0.1h0.1v-0.2h0.1v-0.1h0.1v-0.2h0.1v-0.1h0.1v-0.1h0.1v-0.2h0.1v-0.1h0.1v-0.1h0.1v-0.2h0.1v-0.1h0.1v-0.1h0.1v-0.2h0.1
				v-0.1h0.1v-0.2h0.1v-0.1h0.1v-0.1h0.1v-0.2h0.1v-0.1h0.1v-0.1h0.1v-0.2h0.1v-0.1h0.1v-0.1h0.1v-0.2h0.1v-0.1h0.1v-0.2h0.1v-0.1
				h0.1v-0.1h0.1v-0.2h0.1v-0.1h0.1v-0.1h0.1v-0.2h0.1v-0.1h0.1v-0.1h0.1v-0.2h0.1v-0.1h0.1v-0.2h0.1v-0.1h0.1v-0.1h0.1v-0.2h0.1
				v-0.1h0.1v-0.1h0.1v-0.2h0.1v-0.1h0.1v-0.1h0.1v-0.2h0.1v-0.1h0.1v-0.2h0.1v-0.1h0.1v-0.1h0.1v-0.2h0.1v-0.1h0.1v-0.1h0.1v-0.2
				h0.1v-0.1h0.1v-0.1h0.1v-0.2h0.1v-0.1h0.1V20h0.1v-0.1h0.1v-0.1h0.1v-0.2h0.1v-0.1h0.1v-0.1h0.1v-0.2h0.1V19h0.1v-0.1h0.1v-0.2
				h0.1v-0.1h0.1v-0.2h0.1v-0.1h0.1v-0.1h0.1V18h0.1v-0.1h0.1v-0.1h0.1v-0.2h0.1v-0.1h0.1v-0.1h0.1v-0.2h0.1V17h0.1v-0.2h0.1v-0.1
				h0.1v-0.1h0.1v-0.2h0.1v-0.1h0.1v32.3H284.5z M212.6,48.6v-0.1h-0.2v-0.1h-0.2v-0.1H212v-0.1h-0.2v-0.1h-0.1V48h-0.2v-0.1h-0.2
				v-0.1H211v-0.1h-0.2v-0.1h-0.2v-0.1h-0.1v-0.1h-0.2v-0.1h-0.2v-0.1h-0.2v-0.1h-0.2v-0.1h-0.1v-0.1h-0.2v-0.1h-0.2v-0.1h-0.2v-0.1
				h-0.2v-0.1h-0.2v-0.1h-0.1v-0.1h-0.2v-0.1H208V46h-0.2v-0.1h-0.2v-0.1h-0.1v-0.1h-0.2v-0.1H207v-0.1h-0.2v-0.1h-0.2v-0.1h-0.2
				v-0.1h-0.1v-0.1h-0.2v-0.1h-0.2v-0.1h-0.2v-0.1h-0.2v-0.1h-0.1v-0.1h-0.2v-0.1h-0.2v-0.1h-0.2v-0.1h-0.2v-0.1h-0.2V44h-0.1v-0.1
				H204v-0.1h-0.2v-0.1h-0.2v-0.1h-0.2v-0.1h-0.1v-0.1H203v-0.1h-0.2v-0.1h-0.2v-0.1h-0.2v-0.1h-0.2v-0.1h-0.1v-0.1h-0.2v-0.1h-0.2
				v-0.1h-0.2v-0.1h-0.2v-0.1h-0.1v-0.1h-0.2v-0.1h-0.2V42h-0.2v-0.1h-0.2v-0.1h-0.2v-0.1H200v-0.1h-0.2v-0.1h-0.2v-0.1h-0.2v-0.1
				h-0.2v-0.1H199v-0.1h-0.2v-0.1h-0.2v-0.1h-0.2v-0.1h-0.2v-0.1H198v-0.1h-0.1v-0.1h-0.2v-0.1h-0.2v-0.1h-0.2v-0.1H197V40h-0.2
				v-0.1h-0.1v-0.1h-0.2v-0.1h-0.2v-0.1h-0.2v-0.1h-0.2v-0.1h-0.1v-0.1h-0.2v-0.1h-0.2v-0.1h-0.2v-0.1h-0.2v-0.1h-0.2v-0.1h-0.1
				v-0.1h-0.2v-0.1h-0.2v-0.1H194v-0.1h-0.2v-0.1h-0.1v-0.1h-0.2V38h-0.2v-0.1H193v-0.1h-0.2v-0.1h-0.2v-0.1h-0.1v-0.1h-0.2v-0.1
				h-0.2v-0.1h-0.2v-0.1h-0.2v-0.1h-0.1v-0.1h-0.2v-0.1h-0.2v-0.1h-0.2v-0.1h-0.2v-0.1h-0.2v-0.1h-0.1v-0.1h-0.2v-0.1H190v-0.1h-0.2
				V36h-0.2v-0.1h-0.1v-0.1h-0.2v-0.1H189v-0.1h-0.2v-0.1h-0.2v-0.1h-0.2v-0.1h-0.1v-0.1h-0.2v-0.1h-0.2v-0.1h-0.2v-0.1h-0.2v-0.1
				h-0.1v-0.1h-0.2v-0.1h-0.2v-0.1h-0.2v-0.1h-0.2v-0.1h-0.2v-0.1h-0.1V34H186v-0.1h-0.2v-0.1h-0.2v-0.1h-0.2v-0.1h-0.1v-0.1H185
				v-0.1h-0.2v-0.1h-0.2v-0.1h-0.2v-0.1h-0.2v-0.1h-0.1v-0.1h-0.2v-0.1h-0.2v-0.1h-0.2v-0.1h-0.2v-0.1h-0.1v-0.1h-0.2v-0.1h-0.2
				v-0.1h-0.2V32h-0.2v-0.1h-0.2v-0.1H182v-0.1h-0.2v-0.1h-0.2v-0.1h-0.2v-0.1h-0.2v-0.1h-0.2v-0.1h-0.1v-0.1h-0.2v-0.1h-0.2v-0.1
				h-0.2v-0.1H180v-0.1h-0.1v-0.1h-0.2v-0.1h-0.2v-0.1h-0.2v-0.1H179v-0.1h-0.2V30h-0.1v-0.1h-0.2v-0.1h-0.2v-0.1h-0.2v-0.1h-0.2
				v-0.1h-0.1v-0.1h-0.2v-0.1h-0.2v-0.1h-0.2v-0.1h-0.2v-0.1h-0.2v-0.1h-0.1v-0.1h-0.2v-0.1h-0.2v-0.1H176v-0.1h-0.2v-0.1h-0.1v-0.1
				h-0.2v-0.1h-0.2V28H175v-0.1h-0.2v-0.1h-0.2v-0.1h-0.1v-0.1h-0.2v-0.1h-0.2v-0.1h-0.2v-0.1h-0.2v-0.1h-0.1v-0.1h-0.2v-0.1h-0.2
				v-0.1h-0.2v-0.1h-0.2v-0.1h-0.2v-0.2h0.1v-0.1h0.2v-0.1h0.2v-0.1h0.2V26h0.1v-0.1h0.2v-0.1h0.2v-0.1h0.2v-0.1h0.2v-0.1h0.1v-0.1
				h0.2v-0.1h0.2v-0.1h0.2v-0.1h0.2v-0.1h0.1v-0.1h0.2v-0.1h0.2v-0.1h0.2v-0.1h0.2v-0.1h0.1v-0.1h0.2v-0.1h0.2v-0.1h0.2V24h0.2v-0.1
				h0.1v-0.1h0.2v-0.1h0.2v-0.1h0.2v-0.1h0.2v-0.1h0.2v-0.1h0.1v-0.1h0.2v-0.1h0.2v-0.1h0.2v-0.1h0.2v-0.1h0.1v-0.1h0.2v-0.1h0.2
				v-0.1h0.2v-0.1h0.2v-0.1h0.1v-0.1h0.2V22h0.2v-0.1h0.2v-0.1h0.2v-0.1h0.1v-0.1h0.2v-0.1h0.2v-0.1h0.2v-0.1h0.2v-0.1h0.1v-0.1h0.2
				v-0.1h0.2v-0.1h0.2v-0.1h0.2v-0.1h0.2v-0.1h0.1v-0.1h0.2v-0.1h0.2v-0.1h0.2v-0.1h0.2V20h0.1v-0.1h0.2v-0.1h0.2v-0.1h0.2v-0.1h0.2
				v-0.1h0.1v-0.1h0.2v-0.1h0.2v-0.1h0.2V19h0.2v-0.1h0.1v-0.1h0.2v-0.1h0.2v-0.1h0.2v-0.1h0.2v-0.1h0.1v-0.1h0.2v-0.1h0.2v-0.1h0.2
				V18h0.2v-0.1h0.2v-0.1h0.1v-0.1h0.2v-0.1h0.2v-0.1h0.2v-0.1h0.2v-0.1h0.1v-0.1h0.2V17h0.2v-0.1h0.2v-0.1h0.2v-0.1h0.1v-0.1h0.2
				v-0.1h0.2v-0.1h0.2v-0.1h0.2v-0.1h0.1v-0.1h0.2V16h0.2v-0.1h0.2v-0.1h0.2v-0.1h0.1v-0.1h0.2v-0.1h0.2v-0.1h0.2v-0.1h0.2v-0.1h0.2
				V15h0.1v-0.1h0.2v-0.1h0.2v-0.1h0.2v-0.1h0.2v-0.1h0.1v-0.1h0.2v-0.1h0.2v-0.1h0.2v-0.1h0.2V14h0.1v-0.1h0.2v-0.1h0.2v-0.1h0.2
				v-0.1h0.2v-0.1h0.1v-0.1h0.2v-0.1h0.2v-0.1h0.2V13h0.2v-0.1h0.1v-0.1h0.2v-0.1h0.2v-0.1h0.2v-0.1h0.2v-0.1h0.2v-0.1h0.1v-0.1h0.2
				v-0.1h0.2V12h0.2v-0.1h0.2v-0.1h0.1v-0.1h0.2v-0.1h0.2v-0.1h0.2v-0.1h0.2v-0.1h0.1v-0.1h0.2V11h0.2v-0.1h0.2v-0.1h0.2v-0.1h0.1
				v-0.1h0.2v-0.1h0.2v-0.1h0.2v-0.1h0.2v-0.1h0.1v-0.1h0.2V10h0.2V9.9h0.2V9.8h0.2V9.7h0.2V9.6h0.1V9.5h0.2V9.4h0.2V9.3h0.2V9.2
				h0.2V9h0.1V8.9h0.2V8.8h0.2V8.7h0.2V8.6h0.2V8.5h0.1V8.4h0.2V8.3h0.2V8.2h0.2V8.1h0.2V8h0.1V7.9h0.2V7.8h0.2V7.7h0.2V7.6h0.2V7.5
				h0.1V7.4h0.2V7.3h0.2V7.2h0.2V7h0.2V6.9h0.2V6.8h0.1V6.7h0.2V6.6h0.2V6.5h0.2V6.4h0.2V6.3h0.1V6.2h0.2V6.1h0.2V6h0.2V5.9h0.2V5.8
				h0.1V5.7h0.2V5.6h0.2V5.5h0.2V5.4h0.2V5.3h0.1V5.2h0.2V5h0.2V4.9h0.2V4.8h0.2V4.7h0.1V4.6h0.2V4.5h0.2V4.4h0.2V4.3h0.2V4.2h-11.4
				v0.1H201v0.1h-0.1v0.1h-0.2v0.1h-0.2v0.1h-0.2v0.1h-0.2v0.1h-0.2V5h-0.1v0.1h-0.2v0.1h-0.2v0.1h-0.2v0.1h-0.2v0.1h-0.2v0.1h-0.2
				v0.1h-0.1v0.1h-0.2V6H198v0.1h-0.2v0.1h-0.2v0.1h-0.2v0.1h-0.1v0.1H197v0.1h-0.2v0.1h-0.2v0.1h-0.2v0.1h-0.2V7h-0.1v0.1h-0.2v0.1
				h-0.2v0.1h-0.2v0.1h-0.2v0.1H195v0.1h-0.1v0.1h-0.2v0.1h-0.2V8h-0.2v0.1h-0.2v0.1h-0.2v0.1h-0.1v0.1h-0.2v0.1h-0.2v0.1h-0.2v0.1
				h-0.2v0.1h-0.2v0.1h-0.1V9h-0.2v0.1h-0.2v0.1H192v0.1h-0.2v0.1h-0.2v0.1h-0.2v0.1h-0.1v0.1H191v0.1h-0.2V10h-0.2v0.1h-0.2v0.1
				h-0.2v0.1h-0.1v0.1h-0.2v0.1h-0.2v0.1h-0.2v0.1h-0.2v0.1H189v0.1h-0.1V11h-0.2v0.1h-0.2v0.1h-0.2v0.1h-0.2v0.1h-0.2v0.1h-0.1v0.1
				h-0.2v0.1h-0.2v0.1h-0.2V12h-0.2v0.1h-0.2v0.1h-0.1v0.1h-0.2v0.1h-0.2v0.1H186v0.1h-0.2v0.1h-0.2v0.1h-0.1v0.1h-0.2V13H185v0.1
				h-0.2v0.1h-0.2v0.1h-0.2v0.1h-0.2v0.1h-0.1v0.1h-0.2v0.1h-0.2v0.1h-0.2V14h-0.2v0.1H183v0.1h-0.1v0.1h-0.2v0.1h-0.2v0.1h-0.2v0.1
				h-0.2v0.1h-0.2v0.1h-0.1v0.1h-0.2V15h-0.2v0.1h-0.2v0.1h-0.2v0.1h-0.2v0.1h-0.1v0.1h-0.2v0.1h-0.2v0.1H180v0.1h-0.2V16h-0.2v0.1
				h-0.1v0.1h-0.2v0.1H179v0.1h-0.2v0.1h-0.2v0.1h-0.2v0.1h-0.1v0.1h-0.2v0.1h-0.2V17h-0.2v0.1h-0.2v0.1h-0.2v0.1H177v0.1h-0.1v0.1
				h-0.2v0.1h-0.2v0.1h-0.2v0.1h-0.2V18h-0.2v0.1h-0.1v0.1h-0.2v0.1h-0.2v0.1h-0.2v0.1h-0.2v0.1h-0.2v0.1h-0.1v0.1h-0.2v0.1h-0.2V19
				H174v0.1h-0.2v0.1h-0.2v0.1h-0.1v0.1h-0.2v0.1H173v0.1h-0.2v0.1h-0.2v0.1h-0.2V20h-0.1v0.1h-0.2v0.1h-0.2v0.1h-0.2v0.1h-0.2v0.1
				h-0.2v0.1h-0.1v0.1h-0.2v0.1h-0.2v0.1h-0.2v0.1h-0.2v0.1h-0.2v0.1h-0.2v0.1h-0.1v0.1h-0.2v0.1h-0.2v0.1h-0.2v0.1h-0.2v0.1h-0.2
				V22h-0.1v0.1h-0.2v0.1h-0.2v0.1H168v0.1h-0.2v0.1h-0.2v0.1h-0.1v0.1h-0.2v0.1H167v0.1h-0.2v0.1h-0.2v0.1h-0.2v0.1h-0.1v0.1h-0.2
				v0.1h-0.2v0.1h-0.2v0.1h-0.2v0.1h-0.2v0.1h-0.1V24H159V4.2h-6.8v44.4h6.8V29.1h6.1v0.1h0.1v0.1h0.2v0.1h0.2v0.1h0.2v0.1h0.2v0.1
				h0.2v0.1h0.2v0.1h0.1V30h0.2v0.1h0.2v0.1h0.2v0.1h0.2v0.1h0.2v0.1h0.2v0.1h0.1v0.1h0.2v0.1h0.2v0.1h0.2v0.1h0.2v0.1h0.2v0.1h0.1
				v0.1h0.2v0.1h0.2v0.1h0.2v0.1h0.2v0.1h0.2v0.1h0.2V32h0.1v0.1h0.2v0.1h0.2v0.1h0.2v0.1h0.2v0.1h0.2v0.1h0.2v0.1h0.1v0.1h0.2v0.1
				h0.2v0.1h0.2v0.1h0.2v0.1h0.2v0.1h0.2v0.1h0.1v0.1h0.2v0.1h0.2v0.1h0.2v0.1h0.2V34h0.2v0.1h0.2v0.1h0.1v0.1h0.2v0.1h0.2v0.1h0.2
				v0.1h0.2v0.1h0.2v0.1h0.2v0.1h0.1v0.1h0.2v0.1h0.2v0.1h0.2v0.1h0.2v0.1h0.2v0.1h0.2v0.1h0.1v0.1h0.2v0.1h0.2V36h0.2v0.1h0.2v0.1
				h0.2v0.1h0.1v0.1h0.2v0.1h0.2v0.1h0.2v0.1h0.2v0.1h0.2v0.1h0.2v0.1h0.1v0.1h0.2v0.1h0.2v0.1h0.2v0.1h0.2v0.1h0.2v0.1h0.2v0.1h0.1
				v0.1h0.2V38h0.2v0.1h0.2v0.1h0.2v0.1h0.2v0.1h0.2v0.1h0.1v0.1h0.2v0.1h0.2v0.1h0.2v0.1h0.2v0.1h0.2v0.1h0.2v0.1h0.1v0.1h0.2v0.1
				h0.2v0.1h0.2v0.1h0.2v0.1h0.2v0.1h0.2V40h0.1v0.1h0.2v0.1h0.2v0.1h0.2v0.1h0.2v0.1h0.2v0.1h0.2v0.1h0.1v0.1h0.2v0.1h0.2v0.1h0.2
				v0.1h0.2v0.1h0.2v0.1h0.1v0.1h0.2v0.1h0.2v0.1h0.2v0.1h0.2v0.1h0.2V42h0.2v0.1h0.1v0.1h0.2v0.1h0.2v0.1h0.2v0.1h0.2v0.1h0.2v0.1
				h0.2v0.1h0.1v0.1h0.2v0.1h0.2v0.1h0.2v0.1h0.2v0.1h0.2v0.1h0.2v0.1h0.1v0.1h0.2v0.1h0.2v0.1h0.2V44h0.2v0.1h0.2v0.1h0.2v0.1h0.1
				v0.1h0.2v0.1h0.2v0.1h0.2v0.1h0.2v0.1h0.2v0.1h0.2v0.1h0.1v0.1h0.2v0.1h0.2v0.1h0.2v0.1h0.2v0.1h0.2v0.1h0.2v0.1h0.1v0.1h0.2V46
				h0.2v0.1h0.2v0.1h0.2v0.1h0.2v0.1h0.1v0.1h0.2v0.1h0.2v0.1h0.2v0.1h0.2v0.1h0.2v0.1h0.2v0.1h0.1v0.1h0.2v0.1h0.2v0.1h0.2v0.1h0.2
				v0.1h0.2v0.1h0.2v0.1h0.1V48h0.2v0.1h0.2v0.1h0.2v0.1h0.2v0.1h0.2v0.1h0.2v0.1H212.6z M145.9,48.6v-0.1h-0.1v-0.1h-0.1v-0.1h-0.1
				v-0.1h-0.2v-0.1h-0.1V48h-0.1v-0.1H145v-0.1h-0.1v-0.1h-0.1v-0.1h-0.1v-0.1h-0.1v-0.1h-0.2v-0.1h-0.1v-0.1h-0.1v-0.1h-0.1v-0.1
				H144v-0.1h-0.1v-0.1h-0.1v-0.1h-0.1v-0.1h-0.2v-0.1h-0.1v-0.1h-0.1v-0.1h-0.1v-0.1H143V46h-0.1v-0.1h-0.1v-0.1h-0.1v-0.1h-0.2
				v-0.1h-0.1v-0.1h-0.1v-0.1h-0.1v-0.1h-0.1v-0.1H142v-0.1h-0.1v-0.1h-0.1v-0.1h-0.2v-0.1h-0.1v-0.1h-0.1v-0.1h-0.1v-0.1h-0.1v-0.1
				H141v-0.1h-0.1v-0.1h-0.2V44h-0.1v-0.1h-0.1v-0.1h-0.1v-0.1h-0.1v-0.1h-0.1v-0.1h-0.1v-0.1H140v-0.1h-0.2v-0.1h-0.1v-0.1h-0.1
				v-0.1h-0.1v-0.1h-0.1v-0.1h-0.1v-0.1h-0.1v-0.1H139v-0.1h-0.2v-0.1h-0.1v-0.1h-0.1v-0.1h-0.1V42h-0.1v-0.1h-0.1v-0.1h-0.1v-0.1
				h-0.1v-0.1h-0.2v-0.1h-0.1v-0.1h-0.1v-0.1h-0.1v-0.1h-0.1v-0.1h-0.1v-0.1h-0.1v-0.1h-0.1v-0.1h-0.2v-0.1h-0.1v-0.1h-0.1v-0.1
				h-0.1v-0.1h-0.1v-0.1h-0.1v-0.1h-0.1V40h-0.2v-0.1H136v-0.1h-0.1v-0.1h-0.1v-0.1h-0.1v-0.1h-0.1v-0.1h-0.1v-0.1h-0.1v-0.1h-0.2
				v-0.1H135v-0.1h-0.1v-0.1h-0.1v-0.1h-0.1v-0.1h-0.1v-0.1h-0.1v-0.1h-0.1v-0.1h-0.2v-0.1h-0.1v-0.1H134V38h-0.1v-0.1h-0.1v-0.1
				h-0.1v-0.1h-0.1v-0.1h-0.1v-0.1h-0.2v-0.1h-0.1v-0.1H133v-0.1h-0.1v-0.1h-0.1v-0.1h-0.1v-0.1h-0.1v-0.1h-0.1v-0.1h-0.2v-0.1h-0.1
				v-0.1h-0.1v-0.1H132v-0.1h-0.1v-0.1h-0.1V36h-0.1v-0.1h-0.2v-0.1h-0.1v-0.1h-0.1v-0.1h-0.1v-0.1H131v-0.1h-0.1v-0.1h-0.1v-0.1
				h-0.1v-0.1h-0.2v-0.1h-0.1v-0.1h-0.1v-0.1h-0.1v-0.1h-0.1v-0.1H130v-0.1h-0.1v-0.1h-0.1v-0.1h-0.2v-0.1h-0.1V34h-0.1v-0.1h-0.1
				v-0.1h-0.1v-0.1H129v-0.1h-0.1v-0.1h-0.1v-0.1h-0.2v-0.1h-0.1v-0.1h-0.1v-0.1h-0.1v-0.1h-0.1v-0.1h-0.1v-0.1H128v-0.1h-0.1v-0.1
				h-0.2v-0.1h-0.1v-0.1h-0.1v-0.1h-0.1v-0.1h-0.1V32h-0.1v-0.1H127v-0.1h-0.2v-0.1h-0.1v-0.1h-0.1v-0.1h-0.1v-0.1h-0.1v-0.1h-0.1
				v-0.1h-0.1v-0.1h-0.1v-0.1h-0.2v-0.1h-0.1v-0.1h-0.1v-0.1h-0.1v-0.1h-0.1v-0.1h-0.1v-0.1h-0.1v-0.1h-0.1v-0.1h-0.2V30h-0.1v-0.1
				h-0.1v-0.1h-0.1v-0.1h-0.1v-0.1h-0.1v-0.1h-0.1v-0.1h-0.1v-0.1H124v-0.1h-0.1v-0.1h-0.1v-0.1h-0.1v-0.1h-0.1v-0.1h-0.1v-0.1h-0.1
				v-0.1h-0.1v-0.1H123v-0.1h-0.1v-0.1h-0.1v-0.1h-0.1V28h-0.1v-0.1h-0.1v-0.1h-0.1v-0.1h-0.2v-0.1h-0.1v-0.1H122v-0.1h-0.1v-0.1
				h-0.1v-0.1h-0.1v-0.1h-0.1v-0.1h-0.1v-0.1h-0.2v-0.1h-0.1v-0.1H121v-0.1h-0.1v-0.2h0.1v-0.1h0.1v-0.1h0.2V26h0.1v-0.1h0.1v-0.1
				h0.1v-0.1h0.1v-0.1h0.1v-0.1h0.1v-0.1h0.1v-0.1h0.2v-0.1h0.1v-0.1h0.1v-0.1h0.1v-0.1h0.1v-0.1h0.1v-0.1h0.1v-0.1h0.1v-0.1h0.2
				v-0.1h0.1v-0.1h0.1v-0.1h0.1V24h0.1v-0.1h0.1v-0.1h0.1v-0.1h0.1v-0.1h0.2v-0.1h0.1v-0.1h0.1v-0.1h0.1v-0.1h0.1v-0.1h0.1v-0.1h0.1
				v-0.1h0.1v-0.1h0.2v-0.1h0.1v-0.1h0.1v-0.1h0.1v-0.1h0.1v-0.1h0.1v-0.1h0.1V22h0.2v-0.1h0.1v-0.1h0.1v-0.1h0.1v-0.1h0.1v-0.1h0.1
				v-0.1h0.1v-0.1h0.1v-0.1h0.2v-0.1h0.1v-0.1h0.1v-0.1h0.1v-0.1h0.1v-0.1h0.1v-0.1h0.1v-0.1h0.1v-0.1h0.2v-0.1h0.1v-0.1h0.1V20h0.1
				v-0.1h0.1v-0.1h0.1v-0.1h0.1v-0.1h0.1v-0.1h0.2v-0.1h0.1v-0.1h0.1v-0.1h0.1V19h0.1v-0.1h0.1v-0.1h0.1v-0.1h0.1v-0.1h0.2v-0.1h0.1
				v-0.1h0.1v-0.1h0.1v-0.1h0.1v-0.1h0.1V18h0.1v-0.1h0.1v-0.1h0.2v-0.1h0.1v-0.1h0.1v-0.1h0.1v-0.1h0.1v-0.1h0.1v-0.1h0.1V17h0.2
				v-0.1h0.1v-0.1h0.1v-0.1h0.1v-0.1h0.1v-0.1h0.1v-0.1h0.1v-0.1h0.1v-0.1h0.2v-0.1h0.1V16h0.1v-0.1h0.1v-0.1h0.1v-0.1h0.1v-0.1h0.1
				v-0.1h0.1v-0.1h0.2v-0.1h0.1v-0.1h0.1V15h0.1v-0.1h0.1v-0.1h0.1v-0.1h0.1v-0.1h0.1v-0.1h0.2v-0.1h0.1v-0.1h0.1v-0.1h0.1v-0.1h0.1
				V14h0.1v-0.1h0.1v-0.1h0.1v-0.1h0.2v-0.1h0.1v-0.1h0.1v-0.1h0.1v-0.1h0.1v-0.1h0.1V13h0.1v-0.1h0.2v-0.1h0.1v-0.1h0.1v-0.1h0.1
				v-0.1h0.1v-0.1h0.1v-0.1h0.1v-0.1h0.1v-0.1h0.2V12h0.1v-0.1h0.1v-0.1h0.1v-0.1h0.1v-0.1h0.1v-0.1h0.1v-0.1h0.1v-0.1h0.2v-0.1h0.1
				V11h0.1v-0.1h0.1v-0.1h0.1v-0.1h0.1v-0.1h0.1v-0.1h0.1v-0.1h0.2v-0.1h0.1v-0.1h0.1v-0.1h0.1V10h0.1V9.9h0.1V9.8h0.1V9.7h0.1V9.6
				h0.2V9.5h0.1V9.4h0.1V9.3h0.1V9.2h0.1V9h0.1V8.9h0.1V8.8h0.1V8.7h0.2V8.6h0.1V8.5h0.1V8.4h0.1V8.3h0.1V8.2h0.1V8.1h0.1V8h0.2V7.9
				h0.1V7.8h0.1V7.7h0.1V7.6h0.1V7.5h0.1V7.4h0.1V7.3h0.1V7.2h0.2V7h0.1V6.9h0.1V6.8h0.1V6.7h0.1V6.6h0.1V6.5h0.1V6.4h0.1V6.3h0.2
				V6.2h0.1V6.1h0.1V6h0.1V5.9h0.1V5.8h0.1V5.7h0.1V5.6h0.1V5.5h0.2V5.4h0.1V5.3h0.1V5.2h0.1V5h0.1V4.9h0.1V4.8h0.1V4.7h0.1V4.6h0.2
				V4.5h0.1V4.4h0.1V4.3h0.1V4.2h-9.2v0.1h-0.1v0.1h-0.1v0.1h-0.1v0.1h-0.2v0.1h-0.1v0.1H136v0.1h-0.1V5h-0.1v0.1h-0.1v0.1h-0.2v0.1
				h-0.1v0.1h-0.1v0.1h-0.1v0.1H135v0.1h-0.1v0.1h-0.1V6h-0.2v0.1h-0.1v0.1h-0.1v0.1h-0.1v0.1h-0.1v0.1h-0.1v0.1h-0.2v0.1h-0.1v0.1
				h-0.1v0.1h-0.1V7h-0.1v0.1h-0.1v0.1h-0.1v0.1H133v0.1h-0.1v0.1h-0.1v0.1h-0.1v0.1h-0.1v0.1h-0.1V8h-0.2v0.1h-0.1v0.1h-0.1v0.1
				H132v0.1h-0.1v0.1h-0.1v0.1h-0.1v0.1h-0.2v0.1h-0.1v0.1h-0.1V9h-0.1v0.1H131v0.1h-0.1v0.1h-0.2v0.1h-0.1v0.1h-0.1v0.1h-0.1v0.1
				h-0.1v0.1h-0.1V10h-0.1v0.1h-0.2v0.1h-0.1v0.1h-0.1v0.1h-0.1v0.1h-0.1v0.1h-0.1v0.1h-0.2v0.1H129v0.1h-0.1V11h-0.1v0.1h-0.1v0.1
				h-0.1v0.1h-0.1v0.1h-0.2v0.1h-0.1v0.1h-0.1v0.1H128v0.1h-0.1V12h-0.1v0.1h-0.2v0.1h-0.1v0.1h-0.1v0.1h-0.1v0.1h-0.1v0.1H127v0.1
				h-0.1v0.1h-0.2v0.1h-0.1V13h-0.1v0.1h-0.1v0.1h-0.1v0.1h-0.1v0.1H126v0.1h-0.1v0.1h-0.1v0.1h-0.1v0.1h-0.1V14h-0.1v0.1h-0.1v0.1
				h-0.2v0.1H125v0.1h-0.1v0.1h-0.1v0.1h-0.1v0.1h-0.1v0.1h-0.1v0.1h-0.2V15h-0.1v0.1h-0.1v0.1H124v0.1h-0.1v0.1h-0.1v0.1h-0.2v0.1
				h-0.1v0.1h-0.1v0.1h-0.1V16h-0.1v0.1H123v0.1h-0.1v0.1h-0.2v0.1h-0.1v0.1h-0.1v0.1h-0.1v0.1h-0.1v0.1h-0.1v0.1H122V17h-0.1v0.1
				h-0.1v0.1h-0.1v0.1h-0.1v0.1h-0.1v0.1h-0.1v0.1h-0.2v0.1H121v0.1h-0.1V18h-0.1v0.1h-0.1v0.1h-0.1v0.1h-0.2v0.1h-0.1v0.1h-0.1v0.1
				h-0.1v0.1H120v0.1h-0.1v0.1h-0.1V19h-0.2v0.1h-0.1v0.1h-0.1v0.1h-0.1v0.1h-0.1v0.1H119v0.1h-0.2v0.1h-0.1v0.1h-0.1V20h-0.1v0.1
				h-0.1v0.1h-0.1v0.1h-0.1v0.1H118v0.1h-0.1v0.1h-0.1v0.1h-0.1v0.1h-0.1v0.1h-0.1v0.1h-0.2v0.1h-0.1v0.1H117v0.1h-0.1v0.1h-0.1v0.1
				h-0.1v0.1h-0.1v0.1h-0.2v0.1h-0.2v-0.1h-0.1v-0.1H116v-0.1h-0.1v-0.1h-0.1v-0.1h-0.1v-0.1h-0.2v-0.1h-0.1v-0.1h-0.1v-0.1h-0.1
				v-0.1H115v-0.1h-0.1v-0.1h-0.2v-0.1h-0.1v-0.1h-0.1v-0.1h-0.1v-0.1h-0.1v-0.1h-0.1V20h-0.1v-0.1h-0.2v-0.1h-0.1v-0.1h-0.1v-0.1
				h-0.1v-0.1h-0.1v-0.1h-0.1v-0.1h-0.1v-0.1H113V19h-0.1v-0.1h-0.1v-0.1h-0.1v-0.1h-0.1v-0.1h-0.1v-0.1h-0.2v-0.1h-0.1v-0.1h-0.1
				v-0.1H112v-0.1h-0.1V18h-0.1v-0.1h-0.1v-0.1h-0.2v-0.1h-0.1v-0.1h-0.1v-0.1h-0.1v-0.1H111v-0.1h-0.1v-0.1h-0.2V17h-0.1v-0.1h-0.1
				v-0.1h-0.1v-0.1h-0.1v-0.1h-0.1v-0.1h-0.1v-0.1h-0.2v-0.1h-0.1v-0.1h-0.1v-0.1h-0.1V16h-0.1v-0.1h-0.1v-0.1h-0.2v-0.1H109v-0.1
				h-0.1v-0.1h-0.1v-0.1h-0.1v-0.1h-0.1v-0.1h-0.1V15h-0.2v-0.1h-0.1v-0.1h-0.1v-0.1H108v-0.1h-0.1v-0.1h-0.1v-0.1h-0.2v-0.1h-0.1
				v-0.1h-0.1v-0.1h-0.1V14h-0.1v-0.1H107v-0.1h-0.1v-0.1h-0.2v-0.1h-0.1v-0.1h-0.1v-0.1h-0.1v-0.1h-0.1v-0.1h-0.1V13H106v-0.1h-0.1
				v-0.1h-0.1v-0.1h-0.1v-0.1h-0.1v-0.1h-0.1v-0.1h-0.1v-0.1h-0.2v-0.1H105v-0.1h-0.1V12h-0.1v-0.1h-0.1v-0.1h-0.1v-0.1h-0.2v-0.1
				h-0.1v-0.1h-0.1v-0.1h-0.1v-0.1H104v-0.1h-0.1V11h-0.1v-0.1h-0.2v-0.1h-0.1v-0.1h-0.1v-0.1h-0.1v-0.1h-0.1v-0.1H103v-0.1h-0.2
				v-0.1h-0.1v-0.1h-0.1V10h-0.1V9.9h-0.1V9.8h-0.1V9.7h-0.1V9.6H102V9.5h-0.1V9.4h-0.1V9.3h-0.1V9.2h-0.1V9h-0.1V8.9h-0.2V8.8h-0.1
				V8.7H101V8.6h-0.1V8.5h-0.1V8.4h-0.1V8.3h-0.1V8.2h-0.2V8.1h-0.1V8h-0.1V7.9h-0.1V7.8H100V7.7h-0.1V7.6h-0.2V7.5h-0.1V7.4h-0.1
				V7.3h-0.1V7.2h-0.1V7h-0.1V6.9H99V6.8h-0.2V6.7h-0.1V6.6h-0.1V6.5h-0.1V6.4h-0.1V6.3h-0.1V6.2h-0.2V6.1H98V6h-0.1V5.9h-0.1V5.8
				h-0.1V5.7h-0.1V5.6h-0.1V5.5h-0.2V5.4h-0.1V5.3H97V5.2h-0.1V5h-0.1V4.9h-0.1V4.8h-0.2V4.7h-0.1V4.6h-0.1V4.5h-0.1V4.4h-0.1V4.3
				H96V4.2h-9.2v0.1h0.1v0.1H87v0.1h0.1v0.1h0.1v0.1h0.1v0.1h0.2v0.1h0.1V5h0.1v0.1h0.1v0.1H88v0.1h0.1v0.1h0.1v0.1h0.1v0.1h0.2v0.1
				h0.1v0.1h0.1V6h0.1v0.1h0.1v0.1H89v0.1h0.1v0.1h0.1v0.1h0.2v0.1h0.1v0.1h0.1v0.1h0.1v0.1h0.1V7H90v0.1h0.1v0.1h0.2v0.1h0.1v0.1
				h0.1v0.1h0.1v0.1h0.1v0.1h0.1v0.1h0.1V8H91v0.1h0.2v0.1h0.1v0.1h0.1v0.1h0.1v0.1h0.1v0.1h0.1v0.1h0.1v0.1H92v0.1h0.2V9h0.1v0.1
				h0.1v0.1h0.1v0.1h0.1v0.1h0.1v0.1h0.1v0.1H93v0.1h0.1v0.1h0.1V10h0.1v0.1h0.1v0.1h0.1v0.1h0.1v0.1h0.1v0.1H94v0.1h0.1v0.1h0.1
				v0.1h0.1v0.1h0.1V11h0.1v0.1h0.1v0.1h0.1v0.1h0.2v0.1H95v0.1h0.1v0.1h0.1v0.1h0.1v0.1h0.1V12h0.1v0.1h0.2v0.1h0.1v0.1H96v0.1h0.1
				v0.1h0.1v0.1h0.1v0.1h0.1v0.1h0.1v0.1h0.2V13h0.1v0.1h0.1v0.1H97v0.1h0.1v0.1h0.1v0.1h0.1v0.1h0.2v0.1h0.1v0.1h0.1V14h0.1v0.1H98
				v0.1h0.1v0.1h0.1v0.1h0.1v0.1h0.2v0.1h0.1v0.1h0.1v0.1h0.1v0.1h0.1V15H99v0.1h0.1v0.1h0.1v0.1h0.2v0.1h0.1v0.1h0.1v0.1h0.1v0.1
				h0.1v0.1h0.1V16h0.1v0.1h0.2v0.1h0.1v0.1h0.1v0.1h0.1v0.1h0.1v0.1h0.1v0.1h0.1v0.1h0.1v0.1h0.2V17h0.1v0.1h0.1v0.1h0.1v0.1h0.1
				v0.1h0.1v0.1h0.1v0.1h0.1v0.1h0.2v0.1h0.1V18h0.1v0.1h0.1v0.1h0.1v0.1h0.1v0.1h0.1v0.1h0.2v0.1h0.1v0.1h0.1v0.1h0.1v0.1h0.1V19
				h0.1v0.1h0.1v0.1h0.1v0.1h0.2v0.1h0.1v0.1h0.1v0.1h0.1v0.1h0.1v0.1h0.1V20h0.1v0.1h0.2v0.1h0.1v0.1h0.1v0.1h0.1v0.1h0.1v0.1h0.1
				v0.1h0.1v0.1h0.1v0.1h0.2v0.1h0.1v0.1h0.1v0.1h0.1v0.1h0.1v0.1h0.1v0.1h0.1v0.1h0.1v0.1h0.2v0.1h0.1V22h0.1v0.1h0.1v0.1h0.1v0.1
				h0.1v0.1h0.1v0.1h0.2v0.1h0.1v0.1h0.1v0.1h0.1v0.1h0.1v0.1h0.1v0.1h0.1v0.1h0.1v0.1h0.2v0.1h0.1v0.1h0.1v0.1h0.1v0.1h0.1v0.1h0.1
				V24h0.1v0.1h0.1v0.1h0.2v0.1h0.1v0.1h0.1v0.1h0.1v0.1h0.1v0.1h0.1v0.1h0.1v0.1h0.2v0.1h0.1v0.1h0.1v0.1h0.1v0.1h0.1v0.1h0.1v0.1
				h0.1v0.1h0.1v0.1h0.2v0.1h0.1V26h0.1v0.1h0.1v0.1h0.1v0.1h0.1v0.2h-0.1v0.1h-0.1v0.1h-0.1v0.1h-0.1v0.1h-0.1v0.1H111v0.1h-0.1
				v0.1h-0.1v0.1h-0.1v0.1h-0.1v0.1h-0.1v0.1h-0.1v0.1h-0.1v0.1h-0.2V28H110v0.1h-0.1v0.1h-0.1v0.1h-0.1v0.1h-0.1v0.1h-0.1v0.1h-0.1
				v0.1h-0.2v0.1H109v0.1h-0.1v0.1h-0.1v0.1h-0.1v0.1h-0.1v0.1h-0.1v0.1h-0.2v0.1h-0.1v0.1h-0.1v0.1H108v0.1h-0.1V30h-0.1v0.1h-0.1
				v0.1h-0.1v0.1h-0.2v0.1h-0.1v0.1h-0.1v0.1H107v0.1h-0.1v0.1h-0.1v0.1h-0.1v0.1h-0.2v0.1h-0.1v0.1h-0.1v0.1h-0.1v0.1h-0.1v0.1H106
				v0.1h-0.1v0.1h-0.1v0.1h-0.2V32h-0.1v0.1h-0.1v0.1h-0.1v0.1h-0.1v0.1H105v0.1h-0.1v0.1h-0.1v0.1h-0.2v0.1h-0.1v0.1h-0.1v0.1h-0.1
				v0.1h-0.1v0.1h-0.1v0.1H104v0.1h-0.2v0.1h-0.1v0.1h-0.1v0.1h-0.1v0.1h-0.1V34h-0.1v0.1h-0.1v0.1H103v0.1h-0.2v0.1h-0.1v0.1h-0.1
				v0.1h-0.1v0.1h-0.1v0.1h-0.1v0.1h-0.1v0.1h-0.1v0.1h-0.2v0.1h-0.1v0.1h-0.1v0.1h-0.1v0.1h-0.1v0.1h-0.1v0.1h-0.1v0.1H101V36h-0.1
				v0.1h-0.1v0.1h-0.1v0.1h-0.1v0.1h-0.1v0.1h-0.1v0.1h-0.1v0.1h-0.2v0.1H100v0.1h-0.1v0.1h-0.1v0.1h-0.1v0.1h-0.1v0.1h-0.1v0.1
				h-0.2v0.1h-0.1v0.1H99v0.1h-0.1v0.1h-0.1V38h-0.1v0.1h-0.1v0.1h-0.1v0.1h-0.2v0.1h-0.1v0.1h-0.1v0.1H98v0.1h-0.1v0.1h-0.1v0.1
				h-0.1v0.1h-0.1v0.1h-0.2v0.1h-0.1v0.1h-0.1v0.1H97v0.1h-0.1v0.1h-0.1v0.1h-0.1v0.1h-0.2V40h-0.1v0.1h-0.1v0.1h-0.1v0.1h-0.1v0.1
				H96v0.1h-0.1v0.1h-0.1v0.1h-0.2v0.1h-0.1v0.1h-0.1v0.1h-0.1v0.1h-0.1v0.1H95v0.1h-0.1v0.1h-0.1v0.1h-0.2v0.1h-0.1v0.1h-0.1v0.1
				h-0.1V42h-0.1v0.1h-0.1v0.1H94v0.1h-0.2v0.1h-0.1v0.1h-0.1v0.1h-0.1v0.1h-0.1v0.1h-0.1v0.1h-0.1v0.1H93v0.1h-0.2v0.1h-0.1v0.1
				h-0.1v0.1h-0.1v0.1h-0.1v0.1h-0.1v0.1h-0.1v0.1H92V44h-0.1v0.1h-0.1v0.1h-0.1v0.1h-0.1v0.1h-0.1v0.1h-0.1v0.1h-0.1v0.1H91v0.1
				h-0.1v0.1h-0.1v0.1h-0.1v0.1h-0.1v0.1h-0.1v0.1h-0.1v0.1h-0.1v0.1h-0.2v0.1H90v0.1h-0.1v0.1h-0.1V46h-0.1v0.1h-0.1v0.1h-0.1v0.1
				h-0.2v0.1h-0.1v0.1H89v0.1h-0.1v0.1h-0.1v0.1h-0.1v0.1h-0.1v0.1h-0.1v0.1h-0.2v0.1h-0.1v0.1h-0.1v0.1H88v0.1h-0.1v0.1h-0.1v0.1
				h-0.1v0.1h-0.1V48h-0.2v0.1h-0.1v0.1h-0.1v0.1H87v0.1h-0.1v0.1h-0.1v0.1H96v-0.1h0.1v-0.1h0.1v-0.1h0.1v-0.1h0.1v-0.1h0.1V48h0.2
				v-0.1h0.1v-0.1h0.1v-0.1H97v-0.1h0.1v-0.1h0.1v-0.1h0.2v-0.1h0.1v-0.1h0.1v-0.1h0.1v-0.1h0.1v-0.1H98v-0.1h0.1v-0.1h0.2v-0.1h0.1
				v-0.1h0.1v-0.1h0.1v-0.1h0.1v-0.1h0.1V46H99v-0.1h0.1v-0.1h0.1v-0.1h0.1v-0.1h0.1v-0.1h0.1v-0.1h0.1v-0.1h0.2v-0.1h0.1v-0.1h0.1
				v-0.1h0.1v-0.1h0.1v-0.1h0.1v-0.1h0.2v-0.1h0.1v-0.1h0.1v-0.1h0.1v-0.1h0.1v-0.1h0.1V44h0.1v-0.1h0.2v-0.1h0.1v-0.1h0.1v-0.1h0.1
				v-0.1h0.1v-0.1h0.1v-0.1h0.2v-0.1h0.1v-0.1h0.1v-0.1h0.1v-0.1h0.1v-0.1h0.1v-0.1h0.1v-0.1h0.2v-0.1h0.1v-0.1h0.1v-0.1h0.1v-0.1
				h0.1V42h0.1v-0.1h0.2v-0.1h0.1v-0.1h0.1v-0.1h0.1v-0.1h0.1v-0.1h0.1v-0.1h0.1v-0.1h0.2v-0.1h0.1v-0.1h0.1v-0.1h0.1v-0.1h0.1v-0.1
				h0.1v-0.1h0.2v-0.1h0.1v-0.1h0.1v-0.1h0.1v-0.1h0.1V40h0.1v-0.1h0.1v-0.1h0.2v-0.1h0.1v-0.1h0.1v-0.1h0.1v-0.1h0.1v-0.1h0.1v-0.1
				h0.2v-0.1h0.1v-0.1h0.1v-0.1h0.1v-0.1h0.1v-0.1h0.1v-0.1h0.1v-0.1h0.2v-0.1h0.1v-0.1h0.1v-0.1h0.1V38h0.1v-0.1h0.1v-0.1h0.2v-0.1
				h0.1v-0.1h0.1v-0.1h0.1v-0.1h0.1v-0.1h0.1v-0.1h0.1v-0.1h0.2v-0.1h0.1v-0.1h0.1v-0.1h0.1v-0.1h0.1v-0.1h0.1v-0.1h0.2v-0.1h0.1
				v-0.1h0.1v-0.1h0.1V36h0.1v-0.1h0.1v-0.1h0.1v-0.1h0.2v-0.1h0.1v-0.1h0.1v-0.1h0.1v-0.1h0.1v-0.1h0.1v-0.1h0.2v-0.1h0.1v-0.1h0.1
				v-0.1h0.1v-0.1h0.1v-0.1h0.1v-0.1h0.1v-0.1h0.2v-0.1h0.1v-0.1h0.1V34h0.1v-0.1h0.1v-0.1h0.1v-0.1h0.2v-0.1h0.1v-0.1h0.1v-0.1h0.1
				v-0.1h0.1v-0.1h0.1v-0.1h0.1v-0.1h0.2v-0.1h0.1v-0.1h0.1v-0.1h0.1v-0.1h0.1v-0.1h0.1v-0.1h0.2v-0.1h0.1v-0.1h0.1V32h0.1v-0.1h0.1
				v-0.1h0.1v-0.1h0.1v-0.1h0.2v-0.1h0.1v-0.1h0.1v-0.1h0.1v-0.1h0.1v-0.1h0.1v-0.1h0.2v0.1h0.2v0.1h0.1v0.1h0.1v0.1h0.1v0.1h0.1
				v0.1h0.1v0.1h0.1v0.1h0.2v0.1h0.1V32h0.1v0.1h0.1v0.1h0.1v0.1h0.1v0.1h0.2v0.1h0.1v0.1h0.1v0.1h0.1v0.1h0.1v0.1h0.1v0.1h0.1v0.1
				h0.2v0.1h0.1v0.1h0.1v0.1h0.1v0.1h0.1v0.1h0.1v0.1h0.2v0.1h0.1V34h0.1v0.1h0.1v0.1h0.1v0.1h0.1v0.1h0.1v0.1h0.2v0.1h0.1v0.1h0.1
				v0.1h0.1v0.1h0.1v0.1h0.1v0.1h0.1v0.1h0.2v0.1h0.1v0.1h0.1v0.1h0.1v0.1h0.1v0.1h0.1v0.1h0.2V36h0.1v0.1h0.1v0.1h0.1v0.1h0.1v0.1
				h0.1v0.1h0.1v0.1h0.2v0.1h0.1v0.1h0.1v0.1h0.1v0.1h0.1v0.1h0.1v0.1h0.2v0.1h0.1v0.1h0.1v0.1h0.1v0.1h0.1v0.1h0.1v0.1h0.1V38h0.2
				v0.1h0.1v0.1h0.1v0.1h0.1v0.1h0.1v0.1h0.1v0.1h0.2v0.1h0.1v0.1h0.1v0.1h0.1v0.1h0.1v0.1h0.1v0.1h0.1v0.1h0.2v0.1h0.1v0.1h0.1v0.1
				h0.1v0.1h0.1v0.1h0.1V40h0.2v0.1h0.1v0.1h0.1v0.1h0.1v0.1h0.1v0.1h0.1v0.1h0.1v0.1h0.2v0.1h0.1v0.1h0.1v0.1h0.1v0.1h0.1v0.1h0.1
				v0.1h0.2v0.1h0.1v0.1h0.1v0.1h0.1v0.1h0.1v0.1h0.1V42h0.1v0.1h0.2v0.1h0.1v0.1h0.1v0.1h0.1v0.1h0.1v0.1h0.1v0.1h0.2v0.1h0.1v0.1
				h0.1v0.1h0.1v0.1h0.1v0.1h0.1v0.1h0.1v0.1h0.2v0.1h0.1v0.1h0.1v0.1h0.1v0.1h0.1V44h0.1v0.1h0.2v0.1h0.1v0.1h0.1v0.1h0.1v0.1h0.1
				v0.1h0.1v0.1h0.1v0.1h0.2v0.1h0.1v0.1h0.1v0.1h0.1v0.1h0.1v0.1h0.1v0.1h0.2v0.1h0.1v0.1h0.1v0.1h0.1v0.1h0.1V46h0.1v0.1h0.1v0.1
				h0.2v0.1h0.1v0.1h0.1v0.1h0.1v0.1h0.1v0.1h0.1v0.1h0.2v0.1h0.1v0.1h0.1v0.1h0.1v0.1h0.1v0.1h0.1v0.1h0.1v0.1h0.2v0.1h0.1v0.1h0.1
				v0.1h0.1V48h0.1v0.1h0.1v0.1h0.2v0.1h0.1v0.1h0.1v0.1h0.1v0.1H145.9z M81.9,9.7V4.2h-56v44.4h6.8V29.3h46.2v-5.5H32.7V9.7H81.9z"
				/>
		</g>
	</g>
	<g>
		
			<image style="overflow:visible;opacity:0.75;" width="112" height="112" xlink:href="3260A003CFF7E07E.png"  transform="matrix(0.24 0 0 0.24 286.9361 33.8361)">
		</image>
		<g>
			<polygon class="st1" points="292.7,39.6 292.7,44.4 292.7,49.2 297.5,46.8 302.2,44.4 297.5,42 			"/>
		</g>
	</g>
</g>
</svg>
