<svg xmlns="http://www.w3.org/2000/svg" viewBox="0 0 328.08 53.38"><g id="Graphics"><path d="M338.25,53.15V17.28h-8.13V53.15ZM320.38,70V17.28h-7.13v.25h-.12v.13H313v.25h-.12V18h-.13v.13h-.12v.25h-.13v.12h-.12v.13h-.13v.25h-.12V19H312v.13h-.12v.25h-.13v.12h-.12v.25h-.13v.13h-.12V20h-.13v.25h-.12v.13H311v.12h-.12v.25h-.13v.13h-.12v.25h-.13v.12h-.12v.13h-.13v.25h-.12v.12H310v.13h-.12v.25h-.13v.12h-.12v.13h-.13v.25h-.12v.12h-.13V23h-.12v.13H309v.12h-.12v.25h-.13v.13h-.12v.12h-.13V24h-.12v.13h-.13v.12h-.12v.25H308v.13h-.12v.25h-.13V25h-.12v.13h-.13v.25h-.12v.12h-.13v.13h-.12v.25H307V26h-.12v.25h-.13v.13h-.12v.12h-.13v.25h-.12v.13h-.13V27h-.12v.25H306v.13h-.12v.12h-.13v.25h-.12v.13h-.13v.25h-.12v.12h-.13v.13h-.12v.25H305v.12h-.12v.13h-.13v.25h-.12v.12h-.13v.13h-.12v.25h-.13v.12h-.12V30H304v.13h-.12v.12h-.13v.25h-.12v.13h-.13v.12h-.12V31h-.12v.13h-.13v.12H303v.25h-.13v.13h-.12v.25h-.13V32h-.12v.13h-.13v.25h-.12v.12h-.13v.13H302v.25h-.13V33h-.12v.25h-.13v.13h-.12v.12h-.13v.25h-.12v.13h-.13V34H301v.25h-.13v.13h-.12v.12h-.13v.25h-.12v.13h-.13v.25h-.12v.12h-.13v.13H300v.25h-.13v.12h-.12v.13h-.13v.24h-.12v.13h-.13v.12h-.12v.25h-.13v.13H299V37h-.13v.12h-.12v.13h-.13v.25h-.12v.12h-.13v.13h-.12V38h-.13v.12H298v.13h-.13v.25h-.12v.12h-.13v.25h-.12V39h-.13v.12h-.12v.25h-.13v.13H297v.12h-.13v.25h-.12V40h-.13v.25h-.12v.12h-.13v.13h-.12v.25h-.13v.12H296V41h-.13v.25h-.12v.12h-.13v.13h-.12v.25h-.13v.12h-.12v.25h-.13v.13H295v.12h-.13v.25h-.12v.13h-.13v.12h-.12v.25h-.13v.13h-.12v.12h-.13v.25H294v.13h-.13V44h-.12v.12h-.13v.13h-.12v.25h-.13v.12h-.12v.13h-.13V45H293v.12h-.13v.25h-.12v.13h-.13v.12h-.12v.25h-.13V46h-.12v.12h-.13v.25H292v.13h-.13v.12h-.12v.25h-.13V47h-.12v.25h-.13v.12h-.12v.13h-.13v.25H291v.12h-.13V48h-.12v.25h-.13v.12h-.12v.13h-.13v.25h-.12v.12h-.13v.25H290v.13h-.13v.12h-.12v.25h-.13v.13h-.12v.12h-.13v.25h-.12v.13h-.13v.12H289v.25h-.13v.13h-.12V51h-.13v.12h-.12v.13h-.13v.25h-.12v.12h-.13v.13H288V52h-.13v.12h-.12v.25h-.13v.13h-.12v.12h-.13v.25h-.12V53h-.13v.12H287v.25h-.13v.13h-.12v.12h-.13v.25h-.12V54h-.13v.25h-.12v.12h-.13v.13H286v.25h-.13v.12h-.12V55h-.13v.25h-.12v.12h-.13v.13h-.12v.25h-.13v.12H285v.25h-.13v.13h-.12v.12h-.13v.25h-.12v.13h-.13v.12h-.12v.25h-.13v.12H284v.13h-.13v.25h-.12v.12h-.13V58h-.12v.13h-.13v.12h-.12v.25h-.13v.13H283v.12h-.13V59h-.12v.13h-.13v.25h-.12v.12h-.13v.13h-.12v.25h-.12V60H282v.13h-.12v.25h-.13v.12h-.12v.13h-.13v.25h-.12V61h-.13v.25h-.12v.13H281v-.13h-.12v-.12h-.13V61h-.12v-.25h-.13v-.12h-.12v-.13h-.13v-.25h-.12v-.12H280V59.9h-.12v-.13h-.13v-.12h-.12V59.4h-.13v-.13h-.12v-.12h-.13V58.9h-.12v-.13H279v-.12h-.12V58.4h-.13v-.13h-.12V58h-.13V57.9h-.12v-.13h-.13v-.25h-.12V57.4H278v-.13h-.12V57h-.13V56.9h-.12v-.12h-.13v-.25h-.12V56.4h-.13v-.25h-.12V56H277V55.9h-.12v-.25h-.13v-.12h-.12V55.4h-.13v-.25h-.12V55h-.13v-.25h-.12v-.13H276v-.12h-.12v-.25h-.13v-.13h-.12V54h-.13v-.25h-.12v-.13h-.13v-.12h-.12v-.25H275v-.13h-.12V52.9h-.13v-.12h-.12v-.13h-.13V52.4h-.12v-.12h-.13v-.13h-.12V51.9H274v-.12h-.12v-.13h-.13V51.4h-.12v-.12h-.13V51h-.12V50.9h-.13v-.12h-.12v-.25H273V50.4h-.12v-.12h-.13V50h-.12V49.9h-.13v-.12h-.12v-.25h-.13V49.4h-.12v-.25H272V49h-.12V48.9h-.13v-.25h-.12v-.12h-.13V48.4h-.12v-.25h-.13V48h-.12v-.25H271v-.13h-.12v-.12h-.13v-.25h-.12v-.13h-.13V47h-.12v-.25h-.13v-.13h-.12v-.12H270v-.25h-.12v-.13h-.13V45.9h-.12v-.12h-.13v-.13h-.12V45.4h-.13v-.12h-.12v-.13H269V44.9h-.12v-.12h-.13v-.13h-.12V44.4h-.13v-.12h-.12V44h-.13V43.9h-.12v-.12H268v-.25h-.12V43.4h-.13v-.12h-.12V43h-.13V42.9h-.12v-.12h-.13v-.25h-.12V42.4H267v-.25h-.12V42h-.13V41.9h-.12v-.25h-.13v-.12h-.12V41.4h-.13v-.25h-.12V41H266v-.25h-.12v-.13h-.13v-.12h-.12v-.25h-.13v-.13h-.12V40h-.13v-.25h-.12v-.13H265v-.12h-.12v-.25h-.13v-.13h-.12V38.9h-.13v-.12h-.12v-.13h-.13V38.4h-.12v-.12H264v-.13h-.12V37.9h-.13v-.12h-.12v-.13h-.13V37.4h-.12v-.12h-.13V37h-.12V36.9H263v-.12h-.12v-.25h-.13V36.4h-.12v-.12h-.13V36h-.12v-.12h-.13v-.25h-.12v-.13H262v-.12h-.12v-.25h-.13V35h-.12v-.12h-.13v-.25h-.12v-.13h-.12v-.12h-.13v-.25H261V34h-.13v-.25h-.12v-.12h-.13v-.13h-.12v-.25h-.13v-.12h-.12V33h-.13v-.25H260v-.12h-.13v-.13h-.12v-.25h-.13v-.12h-.12v-.25h-.13v-.13h-.12v-.12h-.13v-.25H259v-.13h-.13v-.12h-.12v-.25h-.13v-.13h-.12v-.12h-.13v-.25h-.12v-.13h-.13V30H258v-.12h-.13v-.13h-.12v-.25h-.13v-.12h-.12v-.13h-.13V29h-.12v-.12h-.13v-.25H257v-.13h-.13v-.12h-.12v-.25h-.13V28h-.12v-.12h-.13v-.25h-.12v-.13h-.13v-.12H256v-.25h-.13V27h-.12v-.25h-.13v-.12h-.12v-.13h-.13v-.25h-.12v-.12h-.13V26H255v-.25h-.13v-.12h-.12v-.13h-.13v-.25h-.12v-.12h-.13v-.25h-.12v-.13h-.13v-.12H254v-.25h-.13v-.13h-.12v-.12h-.13v-.25h-.12v-.13h-.13v-.25h-.12v-.12h-.13v-.13H253V23h-.13v-.12h-.12v-.13h-.13v-.25h-.12v-.12h-.13v-.13h-.12V22h-.13v-.12H252v-.25h-.13v-.13h-.12v-.12h-.13v-.25h-.12V21h-.13v-.12h-.12v-.25h-.13v-.13H251v-.12h-.13v-.25h-.12V20h-.13v-.25h-.12v-.12h-.13v-.13h-.12v-.25h-.13v-.12H250V19h-.13v-.25h-.12v-.12h-.13v-.13h-.12v-.25h-.13v-.12h-.12v-.25h-.13v-.13H249v-.12h-.13v-.25h-.12v-.13h-7V70h8.12V31.66H250v.12h.12V32h.13v.13h.12v.12h.13v.25h.12v.13h.13v.25h.12V33H251v.13h.12v.25h.13v.12h.12v.13h.13v.25h.12V34h.13v.13h.12v.25H252v.12h.12v.25h.13v.13h.12V35h.13v.25h.12v.13h.13v.12h.12v.25H253v.13h.12v.24h.13v.13h.12v.12h.13v.25h.12v.13h.13v.12h.12v.25H254v.13h.12v.12h.13v.25h.12v.13h.13V38h.12v.12h.13v.13h.12v.25H255v.12h.12v.13h.13V39h.12v.12h.13v.13h.12v.25h.13v.12h.12v.25H256V40h.12v.12h.13v.25h.12v.13h.13v.12h.12v.25h.13V41h.12v.25H257v.12h.12v.13h.13v.25h.12v.12h.13V42h.12v.25h.13v.12h.12v.13H258v.25h.12v.12h.13v.25h.12v.13h.13v.12h.12v.25h.13v.13h.12v.12H259v.25h.12v.13h.13v.25h.12v.12h.13v.13h.12V45h.13v.12h.12v.13H260v.25h.12v.12h.13v.13h.12V46h.13v.12h.12v.25h.13v.13h.12v.12H261v.25h.12V47h.13v.12h.12v.25h.12v.13h.13v.25h.12v.12h.13V48H262v.25h.13v.12h.12v.13h.13v.25h.12v.12h.13V49h.12v.25h.13v.12H263v.25h.13v.13h.12v.12h.13v.25h.12v.13h.13v.12h.12v.25h.13v.13H264v.12h.13v.25h.12v.13h.13v.25h.12v.12h.13v.13h.12V52h.13v.12H265v.13h.13v.25h.12v.12h.13v.25h.12V53h.13v.12h.12v.25h.13v.13H266v.12h.13v.25h.12V54h.13v.12h.12v.25h.13v.13h.12v.25h.13v.12H267V55h.13v.25h.12v.12h.13v.13h.12v.25h.13v.12h.12v.25h.13v.13H268v.12h.13v.25h.12v.13h.13v.12h.12v.25h.13v.12h.12v.13h.13v.25H269v.12h.13V58h.12v.13h.13v.12h.12v.25h.13v.13h.12v.12h.13V59H270v.13h.13v.12h.12v.25h.13v.13h.12v.25h.13V60h.12v.13h.13v.25H271v.12h.13v.13h.12v.25h.13V61h.12v.25h.13v.13h.12v.12h.13v.25H272v.13h.13V62h.12v.25h.13v.13h.12v.12h.13v.25h.12v.13h.13v.25H273v.12h.13v.13h.12v.25h.13v.12h.12v.13h.13v.25h.12v.12h.13v.25H274v.13h.13v.12h.12V65h.13v.13h.12v.12h.13v.25h.12v.13h.13v.12H275V66h.13v.13h.12v.25h.13v.12h.12v.13h.13v.25h.12V67h.13v.13H276v.25h.13v.12h.12v.25h.13v.13h.12V68h.13v.25h.12v.13h.13v.12H277v.25h.13v.13h.12V69h.13v.25h.12v.13h.13v.25h.12v.12h.13v.13H278V70h6.12v-.25h.13v-.12h.12v-.13h.13v-.25h.12v-.12h.13V69h.12v-.25H285v-.12h.12v-.13h.13v-.25h.12v-.12h.13V67.9h.12v-.13h.13v-.12h.12V67.4H286v-.13h.12v-.12h.13V66.9h.12v-.13h.13v-.12h.12V66.4h.13v-.13h.12V66H287V65.9h.12v-.13h.13v-.25h.12V65.4h.13v-.13h.12V65h.13V64.9h.12v-.13H288v-.25h.12V64.4h.13v-.25h.12V64h.13V63.9h.12v-.25h.13v-.13h.12V63.4H289v-.25h.12V63h.13V62.9h.12v-.25h.13v-.13h.12v-.25h.13v-.12h.12V62H290v-.25h.12v-.12h.13v-.13h.12v-.25h.13v-.12h.12V61h.13v-.25h.12v-.12H291V60.4h.12v-.13h.13v-.12h.12V59.9h.13v-.13h.12v-.12h.13V59.4h.12v-.13H292v-.12h.12V58.9h.13v-.13h.12v-.25h.13V58.4h.12v-.13h.13V58h.12V57.9H293v-.13h.12v-.25h.13V57.4h.12v-.13h.13V57h.12V56.9h.13v-.25h.12v-.12H294V56.4h.12v-.25h.13V56h.12V55.9h.13v-.25h.12v-.12h.13V55.4h.12v-.25H295V55h.12v-.25h.13v-.13h.12v-.12h.13v-.25h.12v-.13h.13V54h.12v-.25H296v-.13h.12v-.12h.13v-.25h.12v-.13h.13V52.9h.12v-.12h.13v-.13h.12V52.4H297v-.12h.12v-.13h.13V51.9h.12v-.12h.13v-.13h.12V51.4h.13v-.12h.12V51H298V50.9h.12v-.12h.13v-.25h.12V50.4h.13v-.12h.12V50h.13V49.9h.12v-.12H299v-.25h.12V49.4h.13v-.25h.12V49h.13V48.9h.12v-.25h.13v-.12h.12V48.4H300v-.25h.12V48h.13V47.9h.12v-.25h.13v-.12h.12v-.25h.13v-.13h.12V47H301v-.25h.12v-.13h.13v-.12h.12v-.25h.13v-.13h.12V46h.13v-.25h.12v-.13H302V45.4h.12v-.12h.13v-.13h.12V44.9h.13v-.12h.12v-.13h.13V44.4h.12v-.12H303v-.13h.12V43.9h.13v-.12h.12v-.25h.12V43.4h.13v-.12h.12V43h.13V42.9H304v-.12h.13v-.25h.12V42.4h.13v-.12h.12V42h.13V41.9h.12v-.25h.13v-.12H305V41.4h.13v-.25h.12V41h.13V40.9h.12v-.25h.13v-.12h.12V40.4h.13v-.25H306V40h.13v-.25h.12v-.13h.13v-.12h.12v-.25h.13v-.13h.12V39h.13v-.25H307v-.13h.13v-.12h.12v-.25h.13v-.13h.12V37.9h.13v-.12h.12v-.13h.13V37.4H308v-.12h.13v-.13h.12V36.9h.13v-.12h.12v-.13h.13V36.4h.12v-.12h.13V36H309v-.12h.13v-.13h.12v-.25h.13v-.12h.12v-.13h.13V35h.12v-.12h.13v-.13H310v-.25h.13v-.12h.12v-.25h.13V34h.12v-.12h.13v-.25h.12v-.13h.13v-.12H311v-.25h.13V33h.12v-.12h.13v-.25h.12v-.13h.13v-.25h.12v-.12h.13V32H312v-.25h.13v-.12h.12V70ZM235,70V69.9h-.25v-.13h-.25v-.12h-.25v-.13H234V69.4h-.12v-.13h-.25v-.12h-.25V69h-.25V68.9h-.25v-.13h-.25v-.12h-.13v-.13h-.25V68.4H232v-.13h-.25v-.12h-.25V68h-.12V67.9h-.25v-.13h-.25v-.12h-.25v-.13h-.25V67.4h-.25v-.13H230v-.12h-.25V67h-.25V66.9h-.25v-.13H229v-.12h-.12v-.13h-.25V66.4h-.25v-.13h-.25v-.12h-.25V66h-.25V65.9h-.13v-.13h-.25v-.12H227v-.13h-.25V65.4h-.25v-.13h-.12v-.12h-.25V65h-.25V64.9h-.25v-.13h-.25v-.12h-.25v-.13H225V64.4h-.25v-.13h-.25v-.12h-.25V64H224V63.9h-.12v-.13h-.25v-.12h-.25v-.13h-.25V63.4h-.25v-.13h-.25v-.12h-.13V63h-.25V62.9H222v-.13h-.25v-.12h-.25v-.13h-.12V62.4h-.25v-.13h-.25v-.12h-.25V62h-.25V61.9h-.25v-.13H220v-.12h-.25v-.13h-.25V61.4h-.24v-.13H219v-.12h-.13V61h-.25V60.9h-.25v-.13h-.25v-.12h-.25v-.13h-.25V60.4h-.12v-.13h-.25v-.12H217V60h-.25V59.9h-.25v-.13h-.25v-.12h-.13v-.13h-.25V59.4h-.25v-.13h-.25v-.12h-.25V59H215V58.9h-.25v-.13h-.25v-.12h-.25v-.13H214V58.4h-.25v-.13h-.13v-.12h-.25V58h-.25V57.9h-.25v-.13h-.25v-.12h-.12v-.13h-.25V57.4H212v-.13h-.25v-.12h-.25V57h-.25V56.9h-.13v-.12h-.25v-.13h-.25v-.12h-.25V56.4h-.25v-.12H210v-.13h-.25V56h-.25V55.9h-.25v-.12H209v-.13h-.25v-.12h-.13V55.4h-.25v-.12h-.25v-.13h-.25V55h-.25V54.9h-.12v-.12h-.25v-.13H207v-.12h-.25V54.4h-.25v-.12h-.25v-.13h-.13V54h-.25V53.9h-.25v-.12h-.25v-.13h-.25v-.12H205V53.4h-.25v-.12h-.25v-.13h-.25V53H204V52.9h-.25v-.12h-.13v-.13h-.25v-.12h-.25V52.4h-.25v-.12h-.25v-.13h-.12V52h-.25V51.9H202v-.12h-.25v-.13h-.25v-.12h-.25V51.4h-.13v-.12h-.25v-.13h-.25V51h-.25V50.9h-.25v-.12H200v-.13h-.25v-.12h-.25V50.4h-.25v-.12H199v-.13h-.25V50h-.13V49.9h-.25v-.12h-.24v-.13h-.25v-.12h-.25V49.4h-.25v-.12h-.13v-.13H197V49h-.25V48.9h-.25v-.12h-.25v-.13h-.12v-.12h-.25V48.4h-.25v-.12h-.25v-.13h-.25V48h-.25V47.9h-.13v-.12h-.25v-.13h-.25v-.12H194V47.4h-.25v-.12h-.12v-.13h-.25V47h-.25V46.9h-.25v-.12h-.25v-.13h-.25v-.12h-.13V46.4H192v-.12h-.25v-.13h-.25V46h-.25V45.9h-.12v-.12h-.25v-.13h-.25v-.12h-.25V45.4h-.25v-.12h-.25v-.13h-.13V45h-.25V44.9h-.25v-.12H189v-.13h-.25v-.12h-.12V44.4h-.25v-.12h-.25v-.13h-.25V44h-.25V43.9h-.25v-.25h.12v-.12h.25V43.4H188v-.12h.25v-.13h.13V43h.25V42.9h.25v-.12h.25v-.13h.25v-.12h.12V42.4h.25v-.12H190v-.13h.25V42h.25V41.9h.13v-.12h.25v-.13h.25v-.12h.25V41.4h.25v-.12h.12v-.13H192V41h.25V40.9h.25v-.12h.25v-.13h.13v-.12h.25V40.4h.25v-.12h.25v-.13h.25V40h.25V39.9h.12v-.12h.25v-.13h.25v-.12H195V39.4h.25v-.12h.13v-.13h.25V39h.25V38.9h.25v-.12h.25v-.13h.12v-.12h.25V38.4H197v-.12h.25v-.13h.25V38h.13V37.9h.25v-.12h.25v-.13h.24v-.12h.25V37.4h.13v-.12H199v-.13h.25V37h.25V36.9h.25v-.12H200v-.13h.12v-.12h.25V36.4h.25v-.12h.25v-.13h.25V36h.13v-.12h.25v-.13h.25v-.12H202v-.13h.25v-.12h.12v-.13h.25v-.12h.25V35h.25v-.12h.25v-.13h.13v-.12h.25v-.13H204v-.12h.25v-.13h.25v-.12h.12V34h.25v-.12h.25v-.13h.25v-.12h.25v-.13h.25v-.12H206v-.13h.25v-.12h.25V33h.25v-.12H207v-.13h.12v-.12h.25v-.13h.25v-.12h.25v-.13h.25v-.12h.13V32h.25v-.12h.25v-.13H209v-.12h.25v-.13h.12v-.12h.25v-.13h.25v-.12h.25V31h.25v-.12h.13v-.13h.25v-.12H211v-.13h.25v-.12h.25v-.13h.25v-.12h.12V30h.25v-.12h.25v-.13h.25v-.12h.25v-.13H213v-.12h.25v-.13h.25v-.12h.25V29H214v-.12h.12v-.13h.25v-.12h.25v-.13h.25v-.12h.25v-.13h.13v-.12h.25V28h.25v-.12H216v-.13h.25v-.12h.12v-.13h.25v-.12h.25v-.13h.25v-.12h.25V27h.25v-.12h.13v-.13H218v-.12h.25v-.13h.25v-.12h.25v-.13h.12v-.12h.25V26h.25v-.12h.25v-.13h.25v-.12H220v-.13h.25v-.12h.25v-.13h.25v-.12H221V25h.13v-.12h.25v-.13h.25v-.12h.25v-.13h.25v-.12h.12v-.13h.25v-.12h.25V24H223v-.12h.25v-.13h.25v-.12h.13v-.13h.25v-.12h.25v-.13h.25v-.12h.25V23h.12v-.12H225v-.13h.25v-.12h.25v-.13h.25v-.12h.13v-.13h.25v-.12h.25V22h.25v-.12h.25v-.13H227v-.12h.25v-.13h.25v-.12h.25v-.13H228v-.12h.13V21h.25v-.12h.25v-.13h.25v-.12h.25v-.13h.25v-.12h.12v-.13h.25v-.12H230V20h.25v-.12h.25v-.13h.13v-.12h.25v-.13h.25v-.12h.25v-.13h.25v-.12h.12V19H232v-.12h.25v-.13h.25v-.12h.25v-.13h.13v-.12h.25v-.13h.25v-.12h.25V18h.25v-.12H234v-.13h.25v-.12h.25v-.13h.25v-.12H235v-.13h-13.5v.13h-.25v.12h-.12v.13h-.25v.12h-.25v.13h-.25V18h-.25v.13h-.25v.12h-.13v.13h-.25v.12h-.24v.13H219v.12h-.25v.13h-.25V19h-.25v.13h-.13v.12h-.25v.13h-.25v.12h-.25v.13h-.25v.12h-.25v.13h-.12V20h-.25v.13h-.25v.12H216v.13h-.25v.12h-.25v.13h-.13v.12h-.25v.13h-.25V21h-.25v.13h-.25v.12h-.25v.13H214v.12h-.25v.13h-.25v.12h-.25v.13H213V22h-.25v.13h-.13v.12h-.25v.13h-.25v.12h-.25v.13h-.25v.12h-.25v.13h-.12V23H211v.13h-.25v.12h-.25v.13h-.25v.12H210v.13h-.25v.12h-.13v.13h-.25V24h-.25v.13h-.25v.12h-.25v.13h-.25v.12h-.12v.13H208v.12h-.25v.13h-.25V25h-.25v.13H207v.12h-.13v.13h-.25v.12h-.25v.13h-.25v.12h-.25v.13h-.25V26h-.12v.13h-.25v.12H205v.13h-.25v.12h-.25v.13h-.25v.12h-.13v.13h-.25V27h-.25v.13h-.25v.12h-.25v.13h-.25v.12h-.12v.13h-.25v.12h-.25v.13H202V28h-.25v.13h-.25v.12h-.25v.13h-.13v.12h-.25v.13h-.25v.12h-.25v.13h-.25V29h-.25v.13h-.12v.12h-.25v.13h-.25v.12H199v.13h-.25v.12h-.25v.13h-.13V30h-.24v.13h-.25v.12h-.25v.13h-.25v.12h-.25v.13H197v.12h-.25v.13h-.25V31h-.25v.13H196v.12h-.25v.13h-.12v.12h-.25v.13h-.25v.12h-.25v.13h-.25V32h-.25v.13h-.13v.12H194v.13h-.25v.12h-.25v.13h-.25v.12H193v.13h-.25V33h-.12v.13h-.25v.12h-.25v.13h-.25v.12h-.25v.13h-.25v.12h-.13v.13H191V34h-.25v.13h-.25v.12h-.25v.13H190v.12h-.12v.13h-.25v.12h-.25v.13h-.25V35h-.25v.13h-.25v.12h-.13v.13h-.25v.12H188v.13h-.25v.12h-.25v.13h-.25V36h-.12v.12h-.25v.13h-.25v.12h-.25v.13h-.25v.12h-.25v.13h-.13v.12h-.25V37h-.25v.12H185v.13h-.25v.12h-.25v.13h-.25v.12h-.12v.13h-.25v.12h-.25V38h-.25v.12h-.25v.13h-.25v.12h-.13v.13h-.25v.12h-.25v.13H182v.12h-.25V39h-.25v.12h-.12v.13h-.25v.12h-.25v.13h-.25v.12h-.25v.13h-.25v.12H180V40h-.25v.12h-.25v.13h-.25v.12H179v.13h-.25v.12h-.12v.13h-7.25V17.28h-8.12V70h8.12V46.78h7.25v.12h.12V47H179v.12h.25v.13h.25v.12h.25v.13H180v.12h.25v.13h.13v.12h.25V48h.25v.12h.25v.13h.25v.12h.25v.13h.25v.12H182v.13h.25v.12h.25V49h.25v.12H183v.13h.25v.12h.13v.13h.25v.12h.25v.13h.25v.12h.25V50h.25v.12h.25v.13H185v.12h.25v.13h.25v.12h.25v.13H186v.12h.25V51h.25v.12h.13v.13h.25v.12h.25v.13h.25v.12h.25v.13h.25v.12h.25V52h.12v.12h.25v.13h.25v.12H189v.13h.25v.12h.25v.13h.25v.12h.13V53h.25v.12h.25v.13h.25v.12h.25v.13h.25v.12h.25v.13h.12v.12h.25V54H192v.12h.25v.13h.25v.12h.25v.13H193v.12h.13v.13h.25v.12h.25V55h.25v.12h.25v.13h.25v.12h.12v.13h.25v.12H195v.13h.25v.12h.25V56h.25v.12H196v.13h.13v.12h.25v.13h.25v.12h.25v.13h.25v.12h.25V57h.25v.12h.12v.12H198v.13h.25v.12h.25v.13h.25v.12H199v.13h.25V58h.12v.13h.25v.12h.25v.13h.25v.12h.25v.13h.25v.12h.25v.13H201V59h.25v.13h.25v.12h.25v.13H202v.12h.25v.13h.25v.12h.12v.13h.25V60h.25v.13h.25v.12h.25v.13h.25v.12h.25v.13h.13v.12h.25v.13h.25V61H205v.13h.25v.12h.25v.13h.12v.12h.25v.13h.25v.12h.25v.13h.25V62h.25v.13h.25v.12h.13v.13h.25v.12h.25v.13H208v.12h.25v.13h.25V63h.25v.13h.12v.12h.25v.13h.25v.12h.25v.13h.25v.12h.25v.13h.25V64h.13v.13h.25v.12H211v.13h.25v.12h.25v.13h.25v.12H212v.13h.12V65h.25v.13h.25v.12h.25v.13h.25v.12h.25v.13h.25v.12h.13v.13H214V66h.25v.13h.25v.12h.25v.13H215v.12h.25v.13h.12v.12h.25v.13h.25V67h.25v.13h.25v.12h.25v.13h.13v.12H217v.13h.25v.12h.25v.13h.25V68H218v.13h.25v.12h.12v.13h.25v.12h.25v.13h.25v.12h.25v.13h.25V69h.25v.13H220v.12h.25v.13h.25v.12h.25v.13H221v.12h.25v.13h.25V70Zm-79.23,0V69.9h-.12v-.13h-.13v-.12h-.12v-.13h-.25V69.4H155v-.13h-.12v-.12h-.13V69h-.12V68.9h-.13v-.13h-.12v-.12h-.13v-.13H154V68.4h-.12v-.13h-.13v-.12h-.12V68h-.13V67.9h-.12v-.13h-.13v-.12h-.12v-.13h-.25V67.4h-.13v-.13h-.12v-.12h-.13V67h-.12V66.9h-.13v-.13h-.12v-.12H152v-.13h-.25V66.4h-.12v-.13h-.13v-.12h-.12V66h-.13V65.9h-.12v-.13H151v-.12h-.12v-.13h-.25V65.4h-.13v-.13h-.12v-.12h-.13V65h-.12V64.9H150v-.13h-.12v-.12h-.25v-.13h-.13V64.4h-.12v-.13h-.13v-.12h-.12V64H149V63.9h-.12v-.13h-.13v-.12h-.25v-.13h-.12V63.4h-.13v-.13h-.12v-.12H148V63h-.12V62.9h-.13v-.13h-.12v-.12h-.25v-.13h-.13V62.4h-.12v-.13H147v-.12h-.12V62h-.13V61.9h-.12v-.13h-.13v-.12h-.25v-.13h-.12V61.4H146v-.13h-.12v-.12h-.13V61h-.12V60.9h-.13v-.13h-.12v-.12h-.25v-.13H145V60.4h-.12v-.13h-.13v-.12h-.12V60h-.13V59.9h-.12v-.13h-.25v-.12H144v-.13h-.12V59.4h-.13v-.13h-.12v-.12h-.13V59h-.12V58.9h-.13v-.13H143v-.12h-.12v-.13h-.13V58.4h-.12v-.13h-.13v-.12h-.12V58h-.13V57.9h-.12v-.13h-.25v-.12h-.13v-.13h-.12V57.4h-.13v-.13h-.12v-.12h-.13V57h-.12V56.9H141v-.12h-.25v-.13h-.12v-.12h-.13V56.4h-.12v-.12h-.13v-.13h-.12V56H140V55.9h-.12v-.12h-.25v-.13h-.13v-.12h-.12V55.4h-.13v-.12h-.12v-.13H139V55h-.12V54.9h-.25v-.12h-.13v-.13h-.12v-.12h-.13V54.4h-.12v-.12H138v-.13h-.12V54h-.13V53.9h-.25v-.12h-.12v-.13h-.13v-.12h-.12V53.4H137v-.12h-.12v-.13h-.13V53h-.12V52.9h-.25v-.12h-.13v-.13h-.12v-.12H136V52.4h-.12v-.12h-.13v-.13h-.12V52h-.13V51.9h-.24v-.12h-.13v-.13h-.12v-.12h-.13V51.4h-.12v-.12h-.13v-.13h-.12V51h-.13V50.9h-.25v-.12h-.12v-.13h-.13v-.12h-.12V50.4h-.13v-.12h-.12v-.13h-.13V50h-.25V49.9h-.12v-.12h-.13v-.13h-.12v-.12h-.13V49.4h-.12v-.12h-.13v-.13h-.12V49h-.25V48.9h-.13v-.12h-.12v-.13h-.13v-.12h-.12V48.4h-.13v-.12h-.12v-.13h-.13V48h-.25V47.9h-.12v-.12h-.13v-.13h-.12v-.12h-.13V47.4h-.12v-.12h-.13v-.13h-.12V47h-.25V46.9h-.13v-.12h-.12v-.13h-.13v-.12h-.12V46.4h-.13v-.12h-.12v-.13h-.13V46h-.25V45.9h-.12v-.12h-.13v-.13h-.12v-.12h-.13V45.4h-.12v-.12h-.13v-.13h-.25V45h-.12V44.9h-.13v-.12h-.12v-.13h-.13v-.12h-.12V44.4h-.13v-.12h-.12v-.13h-.25V44h-.13V43.9h-.12v-.12h-.13v-.25h.13V43.4h.12v-.12h.25v-.13h.13V43h.12V42.9h.13v-.12h.12v-.13h.13v-.12h.12V42.4h.13v-.12h.25v-.13h.12V42h.13V41.9h.12v-.12h.13v-.13h.12v-.12h.13V41.4h.12v-.12h.25v-.13h.13V41h.12V40.9h.13v-.12h.12v-.13h.13v-.12h.12V40.4h.13v-.12h.25v-.13h.12V40h.13V39.9h.12v-.12h.13v-.13h.12v-.12h.13V39.4h.12v-.12h.25v-.13h.13V39h.12V38.9h.13v-.12h.12v-.13h.13v-.12h.12V38.4h.25v-.12h.13v-.13h.12V38h.13V37.9h.12v-.12h.13v-.13h.12v-.12h.13V37.4h.25v-.12h.12v-.13h.13V37h.12V36.9h.13v-.12h.12v-.13h.13v-.12h.12V36.4h.25v-.12h.13v-.13h.12V36h.13v-.12h.12v-.13h.13v-.12h.12v-.13h.13v-.12h.24v-.13h.13v-.12h.12V35h.13v-.12H136v-.13h.13v-.12h.12v-.13h.13v-.12h.25v-.13h.12v-.12h.13V34H137v-.12h.13v-.13h.12v-.12h.13v-.13h.12v-.12h.25v-.13h.13v-.12H138V33h.13v-.12h.12v-.13h.13v-.12h.12v-.13h.25v-.12h.13v-.13H139v-.12h.13V32h.12v-.12h.13v-.13h.12v-.12h.13v-.13h.25v-.12H140v-.13h.13v-.12h.12V31h.13v-.12h.12v-.13h.13v-.12h.12v-.13H141v-.12h.13v-.13h.12v-.12h.13V30h.12v-.12h.13v-.13h.12v-.12h.13v-.13h.25v-.12h.12v-.13h.13v-.12h.12V29h.13v-.12h.12v-.13h.13v-.12H143v-.13h.25v-.12h.13v-.13h.12v-.12h.13V28h.12v-.12h.13v-.13H144v-.12h.25v-.13h.13v-.12h.12v-.13h.13v-.12h.12V27h.13v-.12H145v-.13h.13v-.12h.25v-.13h.12v-.12h.13v-.13h.12v-.12h.13V26H146v-.12h.13v-.13h.12v-.12h.25v-.13h.13v-.12h.12v-.13h.13v-.12H147V25h.13v-.12h.12v-.13h.13v-.12h.25v-.13h.12v-.12h.13v-.13H148v-.12h.13V24h.12v-.12h.13v-.13h.12v-.12h.25v-.13h.13v-.12H149v-.13h.13v-.12h.12V23h.13v-.12h.12v-.13h.13v-.12h.25v-.13H150v-.12h.13v-.13h.12v-.12h.13V22h.12v-.12h.13v-.13h.25v-.12H151v-.13h.13v-.12h.12v-.13h.13v-.12h.12V21h.13v-.12h.12v-.13H152v-.12h.13v-.13h.12v-.12h.13v-.13h.12v-.12h.13V20h.12v-.12h.13v-.13h.25v-.12h.12v-.13h.13v-.12h.12v-.13h.13v-.12h.12V19h.13v-.12H154v-.13h.25v-.12h.13v-.13h.12v-.12h.13v-.13h.12v-.12h.13V18H155v-.12h.13v-.13h.25v-.12h.12v-.13h.13v-.12h.12v-.13H144.92v.13h-.13v.12h-.12v.13h-.13v.12h-.25v.13h-.12V18H144v.13h-.12v.12h-.13v.13h-.12v.12h-.25v.13h-.13v.12h-.12v.13H143V19h-.12v.13h-.13v.12h-.12v.13h-.25v.12h-.13v.13h-.12v.12H142v.13h-.12V20h-.13v.13h-.25v.12h-.12v.13h-.13v.12h-.12v.13H141v.12h-.12v.13h-.13V21h-.25v.13h-.12v.12h-.13v.13h-.12v.12H140v.13h-.12v.12h-.25v.13h-.13V22h-.12v.13h-.13v.12h-.12v.13H139v.12h-.12v.13h-.25v.12h-.13v.13h-.12V23h-.13v.13h-.12v.12H138v.13h-.25v.12h-.12v.13h-.13v.12h-.12v.13h-.13V24h-.12v.13H137v.12h-.25v.13h-.12v.12h-.13v.13h-.12v.12h-.13v.13h-.12V25h-.25v.13h-.13v.12h-.12v.13h-.13v.12h-.12v.13h-.12v.12h-.13v.13h-.25V26h-.12v.13h-.13v.12h-.12v.13h-.13v.12h-.12v.13h-.25v.12h-.13v.13h-.12V27h-.13v.13h-.12v.12h-.13v.13h-.12v.12h-.25v.13h-.13v.12h-.12v.13h-.13V28h-.12v.13h-.13v.12h-.25v.13h-.12v.12h-.13v.13h-.12v.12h-.13v.13h-.12V29h-.13v.13h-.25v.12h-.12v.13h-.13v.12h-.12v.13h-.13v.12h-.12v.13h-.13V30h-.25v.13h-.12v.12h-.13v.13h-.12v.12h-.13v.13h-.12v.12h-.25v.13h-.13V31h-.12v.13h-.13v.12h-.12v.13h-.13v.12h-.12v.13h-.25v.12h-.13v.13h-.12V32h-.13v.13h-.12v.12h-.13v.13h-.25v.12h-.12v.13h-.13v.12h-.12v.13h-.13V33h-.12v.13h-.13v.12h-.25v.13h-.12v.12h-.13v.13h-.12v.12h-.13v.13h-.12V34h-.25v.13h-.13v.12h-.12v.13h-.13v.12h-.12v.13h-.13v.12h-.12v.13h-.25V35h-.13v.13h-.12v.12h-.13v.13h-.12v.12h-.13v.13h-.25v.12h-.12v.13h-.13V36h-.12v.12h-.13v.13h-.12v.12h-.13v.13h-.25v.12h-.12v.13h-.13v.12h-.12V37h-.13v.12h-.12v.13h-.25v.12h-.13v.13h-.12v.12h-.13v.13h-.12v.12h-.13V38h-.12v.12h-.25v.13h-.25v-.13h-.13V38h-.12V37.9h-.13v-.12h-.12v-.13h-.13v-.12h-.25V37.4h-.12v-.12h-.13v-.13h-.12V37h-.13V36.9h-.12v-.12h-.25v-.13h-.13v-.12h-.12V36.4h-.13v-.12h-.12v-.13h-.13V36h-.12v-.12h-.25v-.13h-.13v-.12h-.12v-.13h-.13v-.12h-.12v-.13h-.13v-.12h-.12V35h-.25v-.12h-.13v-.13h-.12v-.12h-.13v-.13h-.12v-.12h-.13v-.13h-.25v-.12h-.12V34h-.13v-.12h-.12v-.13h-.13v-.12h-.12v-.13h-.13v-.12h-.25v-.13h-.12v-.12h-.13V33h-.12v-.12h-.12v-.13h-.13v-.12h-.25v-.13h-.12v-.12h-.13v-.13h-.12v-.12h-.13V32h-.12v-.12h-.13v-.13h-.25v-.12h-.12v-.13h-.13v-.12h-.12v-.13h-.13v-.12h-.12V31h-.25v-.12h-.13v-.13h-.12v-.12h-.13v-.13h-.12v-.12h-.13v-.13h-.12v-.12h-.25V30h-.13v-.12h-.12v-.13h-.13v-.12h-.12v-.13h-.13v-.12h-.25v-.13h-.12v-.12h-.13V29h-.12v-.12h-.13v-.13h-.12v-.12h-.13v-.13h-.25v-.12h-.12v-.13h-.13v-.12h-.12V28h-.13v-.12h-.12v-.13h-.25v-.12h-.13v-.13h-.12v-.12h-.13v-.13h-.12v-.12h-.13V27h-.12v-.12h-.25v-.13h-.13v-.12h-.12v-.13h-.13v-.12h-.12v-.13h-.13v-.12h-.25V26h-.12v-.12h-.13v-.13h-.12v-.12h-.13v-.13h-.12v-.12h-.13v-.13h-.25v-.12h-.12V25h-.13v-.12h-.12v-.13h-.13v-.12h-.12v-.13h-.25v-.12h-.13v-.13h-.12v-.12h-.13V24h-.12v-.12h-.13v-.13h-.12v-.12h-.25v-.13h-.13v-.12h-.12v-.13h-.13v-.12h-.12V23h-.13v-.12h-.25v-.13h-.12v-.12h-.13v-.13h-.12v-.12h-.13v-.13h-.12v-.12h-.13V22h-.25v-.12h-.12v-.13h-.13v-.12h-.12v-.13h-.13v-.12h-.12v-.13h-.25v-.12h-.13V21h-.12v-.12h-.13v-.13h-.12v-.12h-.13v-.13h-.12v-.12h-.25v-.13H99.8v-.12h-.12V20h-.13v-.12h-.12v-.13H99.3v-.12h-.25v-.13h-.12v-.12H98.8v-.13h-.12v-.12h-.13V19h-.12v-.12H98.3v-.13h-.25v-.12h-.12v-.13H97.8v-.12h-.12v-.13h-.13v-.12h-.12V18h-.25v-.12h-.13v-.13h-.12v-.12H96.8v-.13h-.12v-.12h-.13v-.13H85.68v.13h.13v.12h.12v.13h.13v.12h.12v.13h.13V18h.25v.13h.12v.12h.13v.13h.12v.12h.13v.13h.12v.12h.13v.13h.12V19h.25v.13h.13v.12h.12v.13h.13v.12h.12v.13h.13v.12h.12v.13h.13V20h.25v.13h.12v.12h.13v.13h.12v.12h.13v.13h.12v.12h.13v.13h.25V21h.12v.13h.13v.12h.12v.13h.13v.12h.12v.13h.13v.12h.12v.13h.25V22h.13v.13h.12v.12h.13v.13h.12v.12h.13v.13h.12v.12h.13v.13h.25V23h.12v.13h.13v.12h.12v.13h.13v.12h.12v.13h.13v.12h.25v.13h.12V24h.13v.13h.12v.12h.12v.13h.13v.12h.12v.13h.13v.12h.25v.13h.12V25h.13v.13h.12v.12h.13v.13h.12v.12h.13v.13h.12v.12h.25v.13h.13V26h.12v.13h.13v.12h.12v.13h.13v.12h.12v.13h.25v.12h.13v.13h.12V27h.13v.13h.12v.12h.13v.13h.12v.12h.13v.13h.25v.12h.12v.13h.13V28h.12v.13h.13v.12h.12v.13h.13v.12h.25v.13h.12v.12h.13v.13h.12V29h.13v.13h.12v.12h.13v.13h.12v.12h.25v.13h.13v.12h.12v.13h.13V30h.12v.13h.13v.12h.12v.13h.13v.12h.25v.13h.12v.12h.13v.13h.12V31h.13v.13h.12v.12h.13v.13h.25v.12h.12v.13h.13v.12h.12v.13h.13V32h.12v.13h.13v.12h.12v.13h.25v.12h.13v.13h.12v.12h.13v.13h.12V33h.13v.13h.12v.12h.13v.13h.25v.12h.12v.13h.13v.12h.12v.13h.13V34h.12v.13h.13v.12h.25v.13h.12v.12h.13v.13h.12v.12h.13v.13h.12V35h.13v.13h.12v.12h.25v.13h.13v.12h.12v.13h.13v.12h.12v.13h.13V36h.12v.12h.25v.13h.13v.12h.12v.13h.13v.12h.12v.13h.13v.12h.12V37h.13v.12h.25v.13h.12v.12h.13v.13h.12v.12h.13v.13h.12v.12h.13V38h.12v.12h.25v.13h.13v.12h.12v.13h.13v.12h.12v.13h.13v.12h.12V39h.25v.12h.13v.13h.12v.12h.13v.13h.12v.12h.13v.13h.12v.12h.13V40h.25v.12h.12v.13h.13v.12h.12v.13h.13v.12h.12v.13h.13v.12h.12V41h.25v.12h.13v.13h.12v.12h.13v.13h.12v.12h.13v.13h.12v.12h.25V42h.13v.12h.12v.13h.13v.12h.12v.13h.13v.12h.12v.13h.13v.12h.24V43h.13v.12h.12v.13h.13v.12h.12v.13h.13v.25h-.13v.12h-.12V44h-.13v.12h-.12v.13h-.13v.12h-.24v.13h-.13v.12h-.12v.13h-.13v.12h-.12V45h-.13v.12h-.12v.13h-.13v.12h-.25v.13h-.12v.12h-.13v.13h-.12v.12h-.13V46h-.12v.12h-.13v.13h-.12v.12h-.25v.13h-.13v.12h-.12v.13h-.13v.12h-.12V47h-.13v.12h-.12v.13h-.25v.12h-.13v.13h-.12v.12h-.13v.13h-.12v.12h-.13V48h-.12v.12h-.13v.13h-.25v.12h-.12v.13h-.13v.12h-.12v.13h-.13v.12h-.12V49h-.13v.12h-.25v.13h-.12v.12h-.13v.13h-.12v.12h-.13v.13h-.12v.12h-.13V50h-.12v.12h-.25v.13h-.13v.12h-.12v.13h-.13v.12h-.12v.13h-.13v.12h-.12V51h-.13v.12h-.25v.13h-.12v.12h-.13v.13h-.12v.12h-.13v.13h-.12v.12h-.13V52h-.25v.12h-.12v.13h-.13v.12h-.12v.13h-.13v.12h-.12v.13h-.13v.12h-.12V53h-.25v.12h-.13v.13h-.12v.12h-.13v.13h-.12v.12h-.13v.13h-.12v.12h-.13V54h-.25v.12h-.12v.13h-.13v.12h-.12v.13h-.13v.12h-.12v.13h-.13v.12h-.25V55h-.12v.12h-.13v.13h-.12v.12h-.13v.13h-.12v.12h-.13v.13h-.12v.12h-.25V56h-.13v.12h-.12v.13h-.13v.12h-.12v.13h-.13v.12h-.12v.13h-.25v.12h-.13V57h-.12v.12h-.13v.12h-.12v.13H99.8v.12h-.12v.13h-.13v.12H99.3v.13h-.12V58h-.13v.13h-.12v.12H98.8v.13h-.12v.12h-.13v.13h-.12v.12h-.25v.13h-.13V59h-.12v.13H97.8v.12h-.12v.13h-.13v.12h-.12v.13h-.25v.12h-.13v.13h-.12V60H96.8v.13h-.12v.12h-.13v.13h-.12v.12H96.3v.13h-.25v.12h-.12v.13H95.8V61h-.12v.13h-.13v.12h-.12v.13H95.3v.12h-.12v.13h-.25v.12H94.8v.13h-.12V62h-.13v.13h-.12v.12H94.3v.13h-.12v.12h-.25v.13H93.8v.12h-.12v.13h-.13V63h-.12v.13h-.12v.12h-.13v.13h-.12v.12h-.25v.13h-.13v.12h-.12v.13h-.13V64h-.12v.13h-.13v.12h-.12v.13h-.25v.12h-.13v.13h-.12v.12h-.13v.13h-.12V65h-.13v.13h-.12v.12h-.13v.13h-.25v.12h-.12v.13h-.13v.12h-.12v.13h-.13V66h-.12v.13h-.13v.12h-.12v.13h-.25v.12h-.13v.13h-.12v.12h-.13v.13h-.12V67h-.13v.13h-.12v.12h-.25v.13h-.13v.12h-.12v.13h-.13v.12h-.12v.13h-.13V68h-.12v.13h-.13v.12h-.25v.13h-.12v.12h-.13v.13h-.12v.12h-.13v.13h-.12V69h-.13v.13h-.12v.12h-.25v.13h-.13v.12h-.12v.13h-.13v.12h-.12v.13h-.13V70H96.55V69.9h.13v-.13h.12v-.12h.13v-.13h.12V69.4h.13v-.13h.25v-.12h.12V69h.13V68.9h.12v-.13h.13v-.12h.12v-.13h.25V68.4h.13v-.13h.12v-.12h.13V68h.12V67.9h.13v-.13h.12v-.12h.25v-.13h.13V67.4h.12v-.13h.13v-.12h.12V67h.13V66.9h.25v-.13h.12v-.12h.13v-.13h.12V66.4h.13v-.13h.12v-.12h.13V66h.25V65.9h.12v-.13h.13v-.12h.12v-.13h.13V65.4h.12v-.13h.25v-.12h.13V65h.12V64.9h.13v-.13h.12v-.12h.13v-.13h.12V64.4h.25v-.13h.13v-.12h.12V64h.13V63.9h.12v-.13h.13v-.12h.25v-.13h.12V63.4h.13v-.13h.12v-.12h.13V63h.12V62.9h.13v-.13h.25v-.12h.12v-.13h.13V62.4h.12v-.13h.13v-.12h.12V62h.25V61.9h.13v-.13h.12v-.12h.13v-.13h.12V61.4h.13v-.13h.12v-.12h.25V61h.13V60.9h.12v-.13h.13v-.12h.12v-.13h.13V60.4h.25v-.13h.12v-.12h.13V60h.12V59.9h.13v-.13h.12v-.12h.13v-.13h.25V59.4h.12v-.13h.13v-.12h.12V59h.13V58.9h.12v-.13h.25v-.12h.13v-.13h.12V58.4h.13v-.13h.12v-.12h.13V58h.12V57.9h.25v-.13h.13v-.12h.12v-.13h.13V57.4h.12v-.13h.13v-.12h.25V57h.12V56.9h.13v-.12h.12v-.13h.13v-.12h.12V56.4h.13v-.12h.25v-.13h.12V56h.13V55.9h.12v-.12h.13v-.13h.12v-.12h.25V55.4h.13v-.12h.12v-.13h.13V55h.12V54.9h.13v-.12h.12v-.13h.25v-.12h.13V54.4h.12v-.12h.12v-.13h.13V54h.12V53.9h.25v-.12h.13v-.13h.12v-.12h.13V53.4h.12v-.12h.13v-.13h.12V53h.25V52.9h.13v-.12h.12v-.13h.13v-.12h.12V52.4h.13v-.12h.25v-.13h.12V52h.13V51.9h.12v-.12h.13v-.13h.12v-.12h.13V51.4h.25v-.12h.12v-.13h.13V51h.12V50.9h.13v-.12h.12v-.13h.25v-.12h.13V50.4h.12v-.12h.13v-.13h.12V50h.13V49.9h.12v-.12h.25v-.13h.13v-.12h.12V49.4h.13v-.12h.12v-.13h.13V49h.25v.12h.25v.13h.12v.12h.13v.13h.12v.12h.13v.13h.12v.12h.13V50h.25v.12h.12v.13h.13v.12h.12v.13h.13v.12h.12v.13h.25v.12h.13V51h.12v.12h.13v.13h.12v.12h.13v.13h.12v.12h.25v.13h.13v.12h.12V52h.13v.12h.12v.13h.13v.12h.25v.13h.12v.12h.13v.13h.12v.12h.13V53h.12v.12h.13v.13h.25v.12h.12v.13h.13v.12h.12v.13h.13v.12h.12V54h.13v.12h.25v.13h.12v.12h.13v.13h.12v.12h.13v.13h.12v.12h.25V55h.13v.12h.12v.13h.13v.12h.12v.13h.13v.12h.12v.13h.25v.12h.13V56h.12v.12h.13v.13h.12v.12h.13v.13h.25v.12h.12v.13h.13v.12h.12V57h.13v.12h.12v.12h.13v.13h.25v.12h.12v.13h.13v.12h.12v.13h.13V58h.12v.13h.25v.12h.13v.13h.12v.12h.13v.13h.12v.12h.13v.13h.12V59h.25v.13h.13v.12h.12v.13h.13v.12h.12v.13h.13v.12h.25v.13h.12V60h.13v.13h.12v.12h.13v.13h.12v.12h.13v.13h.25v.12h.12v.13h.13V61h.12v.13h.13v.12h.12v.13h.25v.12h.13v.13h.12v.12h.12v.13h.13V62h.12v.13h.13v.12h.25v.13h.12v.12h.13v.13h.12v.12h.13v.13h.12V63H137v.13h.13v.12h.12v.13h.13v.12h.12v.13h.13v.12h.12v.13H138V64h.13v.13h.12v.12h.13v.13h.12v.12h.13v.13h.25v.12H139v.13h.13V65h.12v.13h.13v.12h.12v.13h.13v.12h.25v.13H140v.12h.13v.13h.12V66h.13v.13h.12v.12h.25v.13h.13v.12H141v.13h.13v.12h.12v.13h.13V67h.12v.13h.25v.12h.13v.13H142v.12h.13v.13h.12v.12h.13v.13h.25V68h.12v.13h.13v.12H143v.13h.13v.12h.12v.13h.13v.12h.25v.13h.12V69h.13v.13H144v.12h.13v.13h.12v.12h.25v.13h.13v.12h.12v.13h.13V70Zm-76-46.24v-6.5H13.32V70h8.13V47H76.31v-6.5H21.45V23.78Z" transform="translate(-13.32 -17.28)" style="fill:#fff"/><polygon points="316.8 42.04 316.8 47.71 316.8 53.38 322.44 50.54 328.08 47.71 322.44 44.87 316.8 42.04" style="fill:#fff"/></g></svg>